<?xml version="1.0" standalone="no"?>
<!DOCTYPE svg PUBLIC "-//W3C//DTD SVG 20010904//EN"
 "http://www.w3.org/TR/2001/REC-SVG-20010904/DTD/svg10.dtd">
<svg version="1.0" xmlns="http://www.w3.org/2000/svg"
 width="400.000000pt" height="400.000000pt" viewBox="0 0 400.000000 400.000000"
 preserveAspectRatio="xMidYMid meet">
<metadata>
Created by potrace 1.14, written by Peter Selinger 2001-2017
</metadata>
<g transform="translate(0.000000,400.000000) scale(0.100000,-0.100000)"
fill="#000000" stroke="none">
<path d="M2028 3938 c-35 -35 -72 -80 -83 -101 -25 -47 -42 -52 -104 -30 -47
16 -55 17 -123 1 -134 -29 -198 -48 -236 -67 -20 -10 -41 -19 -45 -19 -5 0
-19 -8 -31 -18 -12 -11 -55 -44 -96 -75 -89 -67 -302 -261 -346 -315 -68 -86
-103 -164 -165 -369 -31 -103 -33 -119 -32 -245 3 -247 21 -522 38 -584 17
-62 60 -153 100 -215 13 -20 31 -65 40 -101 40 -160 113 -343 176 -437 16 -25
18 -33 7 -33 -25 0 -96 -69 -139 -136 -30 -45 -50 -66 -68 -70 -77 -15 -100
-27 -154 -80 -32 -31 -67 -74 -77 -95 -25 -48 -27 -140 -5 -163 14 -14 14 -21
0 -68 -15 -55 -37 -225 -55 -434 -11 -141 -11 -141 -62 -216 -42 -63 -44 -68
-25 -68 14 0 70 80 92 132 8 21 15 67 15 106 0 162 36 474 60 512 6 10 20 6
67 -20 32 -18 60 -34 62 -36 2 -2 -8 -30 -22 -61 -45 -103 -52 -157 -37 -301
7 -70 11 -173 8 -230 l-4 -102 558 0 558 0 5 23 c3 12 11 69 18 127 12 92 12
106 -1 116 -15 11 -9 34 9 34 11 0 39 -61 33 -72 -2 -4 -8 -49 -13 -100 -5
-51 -12 -101 -16 -110 -7 -17 9 -18 253 -18 l260 0 12 52 c7 28 13 85 14 127
1 81 14 106 28 56 9 -29 3 -166 -9 -212 l-5 -23 440 0 440 0 12 88 c17 115 1
307 -34 418 l-25 78 21 23 c19 20 20 27 10 90 -5 37 -8 69 -7 71 6 7 61 -28
87 -55 59 -61 62 -81 69 -408 3 -165 6 -301 7 -302 1 -2 8 -3 16 -3 12 0 14
20 10 113 -2 61 -6 189 -8 282 -7 247 -32 308 -150 373 -34 18 -59 42 -79 75
l-29 48 44 47 c62 67 107 135 131 200 18 48 21 79 21 192 -1 160 -18 253 -99
535 -65 227 -90 338 -104 465 -6 52 -16 138 -22 190 -6 52 -13 120 -14 150 -5
82 -33 309 -54 440 -25 151 -101 347 -178 462 -31 46 -73 109 -95 141 -71 105
-186 235 -230 260 -37 21 -57 24 -141 25 l-99 2 24 -20 23 -20 -32 11 c-18 6
-30 15 -27 20 3 5 -53 9 -131 9 -106 0 -135 -3 -129 -12 6 -10 4 -10 -7 0 -27
25 -57 12 -121 -50z m545 43 c-4 -3 -10 -10 -14 -14 -3 -4 -11 -2 -18 6 -9 12
-7 15 14 15 14 0 22 -3 18 -7z m57 -6 c11 -13 10 -14 -4 -9 -9 3 -16 10 -16
15 0 13 6 11 20 -6z m-479 -12 c13 -15 12 -15 -7 -3 -19 12 -24 11 -39 -3 -9
-9 -21 -17 -26 -17 -6 0 -8 -8 -4 -19 3 -11 -1 -24 -12 -32 -16 -13 -17 -12
-4 4 20 25 5 34 -21 12 -13 -10 -1 3 25 29 53 50 67 55 88 29z m530 -19 c17
-18 19 -23 6 -18 -10 3 -17 1 -17 -5 0 -6 5 -11 10 -11 6 0 10 -5 10 -11 0 -8
-5 -7 -16 2 -11 9 -17 10 -22 2 -5 -8 -15 -6 -32 7 -14 11 -20 20 -13 20 6 0
15 -4 18 -10 10 -16 28 -12 22 4 -4 10 -1 13 9 9 17 -6 19 8 2 25 -7 7 -10 12
-7 12 3 0 16 -11 30 -26z m-164 -4 c14 -11 21 -20 15 -20 -12 0 -60 39 -49 40
5 0 20 -9 34 -20z m83 10 c0 -5 -4 -10 -10 -10 -5 0 -10 5 -10 10 0 6 5 10 10
10 6 0 10 -4 10 -10z m-465 -10 c3 -5 1 -10 -4 -10 -6 0 -11 5 -11 10 0 6 2
10 4 10 3 0 8 -4 11 -10z m348 -17 c-7 -2 -19 -2 -25 0 -7 3 -2 5 12 5 14 0
19 -2 13 -5z m261 -42 c22 -23 24 -29 12 -34 -8 -3 -18 -1 -22 5 -4 7 -3 8 4
4 19 -12 14 6 -10 31 -12 13 -19 23 -17 23 3 0 18 -13 33 -29z m-740 -15 c-3
-9 -11 -16 -16 -16 -6 0 -5 -6 2 -15 9 -10 9 -15 1 -15 -6 0 -11 6 -11 13 0 8
-4 7 -10 -3 -5 -8 -10 -11 -10 -7 0 10 43 66 48 62 1 -1 0 -10 -4 -19z m677 7
c13 -16 12 -17 -3 -4 -17 13 -22 21 -14 21 2 0 10 -8 17 -17z m-606 -23 c3 -6
-1 -7 -9 -4 -18 7 -21 14 -7 14 6 0 13 -4 16 -10z m3 -27 c-10 -2 -26 -2 -35
0 -10 3 -2 5 17 5 19 0 27 -2 18 -5z m99 1 c-3 -3 -12 -4 -19 -1 -8 3 -5 6 6
6 11 1 17 -2 13 -5z m608 -2 c6 -4 21 -23 34 -42 17 -26 18 -29 3 -13 -11 12
-21 21 -23 19 -2 -2 -12 7 -22 20 -17 23 -13 31 8 16z m-101 -53 c-3 -5 -11
-9 -17 -9 -7 0 -6 4 3 10 12 8 12 10 -2 15 -9 4 -19 14 -23 23 -4 11 2 9 19
-7 14 -13 23 -28 20 -32z m145 -41 c37 -46 19 -32 -39 29 -31 32 -39 44 -20
27 20 -16 46 -41 59 -56z m-701 65 c-10 -2 -26 -2 -35 0 -10 3 -2 5 17 5 19 0
27 -2 18 -5z m17 -24 c6 -6 -1 -7 -20 -4 -17 3 -57 10 -90 15 -57 9 -56 9 20
4 44 -3 84 -10 90 -15z m80 11 c14 -5 8 -7 -22 -6 -24 0 -43 4 -43 9 0 9 39 8
65 -3z m165 0 c24 -15 7 -18 -25 -4 -23 10 -25 13 -10 13 11 1 27 -3 35 -9z
m-545 -10 c3 -6 -1 -7 -9 -4 -18 7 -21 14 -7 14 6 0 13 -4 16 -10z m442 -6
c-3 -3 -12 -4 -19 -1 -8 3 -5 6 6 6 11 1 17 -2 13 -5z m-54 -11 c-7 -2 -19 -2
-25 0 -7 3 -2 5 12 5 14 0 19 -2 13 -5z m122 -13 c22 -10 33 -19 25 -19 -8 0
-31 8 -50 19 -45 24 -28 24 25 0z m180 10 c3 -5 2 -10 -4 -10 -5 0 -13 5 -16
10 -3 6 -2 10 4 10 5 0 13 -4 16 -10z m-935 -10 c0 -5 -18 -13 -39 -16 -28 -4
-38 -10 -34 -20 3 -8 0 -14 -7 -14 -6 0 -8 5 -4 12 5 8 2 9 -9 5 -47 -19 -52
-20 -32 -4 11 8 43 21 70 30 28 8 51 15 53 16 1 1 2 -3 2 -9z m68 3 c-10 -2
-26 -2 -35 0 -10 3 -2 5 17 5 19 0 27 -2 18 -5z m181 -9 c9 -8 -55 -2 -74 6
-13 6 -5 7 25 3 25 -3 47 -7 49 -9z m151 7 c0 -5 10 -12 23 -14 12 -2 -3 -5
-33 -6 -31 0 -61 -6 -68 -13 -7 -7 -32 -13 -58 -13 -28 -1 -40 1 -32 6 7 5 26
6 42 3 24 -5 28 -3 23 10 -4 9 -2 16 3 16 6 0 10 -5 10 -12 0 -9 3 -9 12 0 7
7 26 12 43 13 26 0 27 2 10 9 -19 8 -19 9 3 9 12 1 22 -3 22 -8z m167 -7 c25
-7 25 -8 8 -15 -11 -4 -31 -7 -45 -7 -22 0 -22 1 5 7 25 6 18 9 -45 19 -75 11
-75 11 -12 7 34 -3 75 -8 89 -11z m354 -12 c46 -29 25 -27 -31 3 -25 14 -36
23 -24 22 11 -2 36 -13 55 -25z m218 -8 c1 12 41 -24 41 -37 0 -6 -6 -3 -13 8
-13 17 -43 13 -33 -4 3 -4 -1 -8 -9 -8 -10 0 -12 4 -5 12 5 6 7 22 4 36 -4 21
-3 22 5 4 5 -11 10 -16 10 -11z m-262 -29 c34 -20 63 -38 63 -40 0 -5 -130 62
-139 71 -14 14 21 -1 76 -31z m424 -25 c6 -5 70 -104 83 -130 14 -27 -34 34
-50 63 -8 16 -29 41 -46 56 -24 21 -29 33 -24 47 8 18 9 17 19 -6 6 -14 14
-27 18 -30z m-882 36 c-2 -2 -26 -6 -54 -9 -32 -4 -43 -3 -30 3 19 8 93 14 84
6z m218 -2 c-3 -3 -12 -4 -19 -1 -8 3 -5 6 6 6 11 1 17 -2 13 -5z m-792 -14
c-3 -5 -12 -10 -18 -10 -7 0 -6 4 3 10 19 12 23 12 15 0z m612 4 c-3 -3 -12
-4 -19 -1 -8 3 -5 6 6 6 11 1 17 -2 13 -5z m68 -14 c3 -5 2 -10 -4 -10 -5 0
-13 5 -16 10 -3 6 -2 10 4 10 5 0 13 -4 16 -10z m112 -7 c0 -9 -6 -9 -21 -1
-30 15 -30 16 -3 14 13 0 24 -6 24 -13z m377 5 c-8 -13 11 -9 26 5 12 10 12 9
0 -6 -12 -16 -11 -19 6 -23 10 -3 27 -16 37 -30 14 -19 15 -23 2 -18 -8 3 -15
10 -15 15 0 4 -20 20 -45 35 -25 14 -45 27 -45 28 0 1 9 2 19 2 11 0 17 -4 15
-8z m-1194 -13 c11 -13 10 -14 -3 -9 -18 7 -69 -24 -61 -37 3 -5 -1 -6 -9 -3
-17 6 -49 -34 -40 -50 4 -7 1 -6 -7 1 -7 6 -9 16 -5 22 5 8 100 85 111 90 1 1
7 -6 14 -14z m1394 -21 c3 -9 4 -20 0 -25 -3 -5 0 -9 6 -9 5 0 18 -17 28 -37
9 -21 19 -40 22 -43 10 -9 31 -63 26 -67 -2 -2 -7 5 -11 18 -6 16 -9 18 -16 8
-4 -7 -11 -10 -16 -6 -4 5 -2 12 5 16 11 6 9 16 -8 47 -12 21 -28 46 -36 55
-8 9 -11 19 -8 22 4 4 1 13 -6 22 -7 8 -8 15 -2 15 5 0 13 -7 16 -16z m-699
-4 c-27 -12 -43 -12 -25 0 8 5 22 9 30 9 10 0 8 -3 -5 -9z m-684 -17 c13 -15
12 -15 -8 -4 -24 12 -29 21 -14 21 5 0 15 -7 22 -17z m779 7 c-20 -13 -33 -13
-25 0 3 6 14 10 23 10 15 0 15 -2 2 -10z m326 -5 c24 -18 7 -19 -26 0 -16 9
-19 14 -9 15 8 0 24 -7 35 -15z m358 -27 c-4 -6 -10 -5 -15 3 -14 22 -10 33 6
19 8 -7 12 -17 9 -22z m-144 12 c0 -5 -5 -10 -11 -10 -5 0 -7 5 -4 10 3 6 8
10 11 10 2 0 4 -4 4 -10z m-173 -25 c-15 -16 -19 -13 -11 9 3 9 10 13 15 10 5
-3 3 -11 -4 -19z m231 -10 c-3 -3 -9 2 -12 12 -6 14 -5 15 5 6 7 -7 10 -15 7
-18z m-31 -37 c3 -7 -8 -2 -25 10 -17 13 -35 28 -39 34 -3 7 8 2 25 -10 17
-13 35 -28 39 -34z m9 31 c19 -22 19 -22 -3 -8 -13 8 -23 17 -23 21 0 12 6 9
26 -13z m-181 1 c-3 -5 -16 -15 -28 -21 -21 -10 -21 -9 2 10 25 23 36 27 26
11z m45 -10 c0 -5 -2 -10 -4 -10 -3 0 -8 5 -11 10 -3 6 -1 10 4 10 6 0 11 -4
11 -10z m286 -23 c2 -14 -1 -29 -8 -33 -7 -5 -9 -2 -5 8 3 9 1 20 -5 26 -6 6
-7 15 -3 22 9 15 15 8 21 -23z m-1693 8 c-3 -9 -8 -14 -10 -11 -3 3 -2 9 2 15
9 16 15 13 8 -4z m1461 -32 c8 -19 2 -16 -25 13 -23 25 -23 26 -2 13 13 -7 25
-19 27 -26z m-1367 21 c-3 -3 -12 -4 -19 -1 -8 3 -5 6 6 6 11 1 17 -2 13 -5z
m1478 -4 c3 -5 1 -10 -4 -10 -6 0 -11 5 -11 10 0 6 2 10 4 10 3 0 8 -4 11 -10z
m-1615 -23 c0 -2 -15 -16 -32 -33 l-33 -29 29 33 c28 30 36 37 36 29z m1470
-7 c0 -5 -2 -10 -4 -10 -3 0 -8 5 -11 10 -3 6 -1 10 4 10 6 0 11 -4 11 -10z
m306 -13 c14 16 14 16 3 -7 -7 -14 -12 -38 -11 -55 1 -29 1 -29 -7 -5 -4 14
-11 39 -15 55 -5 25 -4 27 5 12 10 -18 11 -18 25 0z m-141 -7 c3 -5 1 -10 -4
-10 -6 0 -11 5 -11 10 0 6 2 10 4 10 3 0 8 -4 11 -10z m-758 -6 c-3 -3 -12 -4
-19 -1 -8 3 -5 6 6 6 11 1 17 -2 13 -5z m628 -4 c3 -5 1 -10 -4 -10 -6 0 -11
5 -11 10 0 6 2 10 4 10 3 0 8 -4 11 -10z m54 -11 c-15 -9 -32 -2 -24 11 3 5
13 6 21 3 12 -4 13 -8 3 -14z m252 4 c13 -16 12 -17 -3 -4 -10 7 -18 15 -18
17 0 8 8 3 21 -13z m-764 -29 c0 -9 -6 -10 -16 -5 -9 5 -23 11 -31 14 -8 3 -1
5 16 4 17 0 31 -7 31 -13z m561 -14 c4 0 13 -9 19 -20 11 -17 10 -21 -10 -30
-20 -10 -21 -10 -4 3 17 14 16 16 -13 37 -16 12 -30 26 -30 31 0 6 7 3 16 -5
8 -9 19 -16 22 -16z m-514 11 c16 -7 26 -6 30 0 2 5 3 4 2 -2 -1 -7 -14 -13
-28 -13 -15 -1 -25 2 -22 5 2 4 -2 10 -8 12 -24 10 0 7 26 -2z m596 -11 c0 -5
-5 -10 -11 -10 -5 0 -7 5 -4 10 3 6 8 10 11 10 2 0 4 -4 4 -10z m151 -7 c13
-16 12 -17 -3 -4 -10 7 -18 15 -18 17 0 8 8 3 21 -13z m-111 -26 c0 -5 -4 -5
-10 -2 -5 3 -10 14 -10 23 0 15 2 15 10 2 5 -8 10 -19 10 -23z m-1826 2 c-3
-5 -10 -7 -15 -3 -5 3 -7 10 -3 15 3 5 10 7 15 3 5 -3 7 -10 3 -15z m1141 11
c3 -6 -1 -7 -9 -4 -18 7 -21 14 -7 14 6 0 13 -4 16 -10z m-225 -10 c0 -5 -4
-10 -10 -10 -5 0 -10 5 -10 10 0 6 5 10 10 10 6 0 10 -4 10 -10z m60 0 c0 -5
-4 -10 -10 -10 -5 0 -10 5 -10 10 0 6 5 10 10 10 6 0 10 -4 10 -10z m277 4
c-3 -3 -12 -4 -19 -1 -8 3 -5 6 6 6 11 1 17 -2 13 -5z m741 -121 c5 -18 7 -33
2 -33 -10 0 -20 25 -20 50 0 10 -7 31 -15 46 -8 16 -15 36 -15 44 1 15 28 -46
48 -107z m-921 101 c-3 -3 -12 -4 -19 -1 -8 3 -5 6 6 6 11 1 17 -2 13 -5z
m209 -51 c-7 -8 -63 26 -69 41 -3 8 9 4 34 -12 21 -14 37 -27 35 -29z m657 37
c3 -11 1 -18 -4 -14 -5 3 -9 12 -9 20 0 20 7 17 13 -6z m-566 -4 c0 -8 -6 -12
-15 -9 -11 5 -11 7 0 14 7 5 13 9 14 9 0 0 1 -6 1 -14z m383 -1 c0 -8 -4 -15
-10 -15 -5 0 -10 7 -10 15 0 8 5 15 10 15 6 0 10 -7 10 -15z m88 -17 c16 -43
11 -43 -16 -2 -15 23 -18 34 -9 34 7 0 18 -14 25 -32z m53 -14 c-5 -21 -9 -30
-10 -19 -1 24 10 67 15 62 3 -2 0 -22 -5 -43z m-1941 19 c-8 -3 -26 -15 -39
-27 l-24 -21 18 28 c10 16 26 27 39 26 14 0 16 -2 6 -6z m1410 -19 c0 -2 -9 0
-20 6 -11 6 -20 13 -20 16 0 2 9 0 20 -6 11 -6 20 -13 20 -16z m425 -11 l18
-28 -21 19 c-12 11 -22 23 -22 28 0 14 7 9 25 -19z m-378 -9 c-7 -7 -37 7 -37
17 0 6 9 5 21 -1 11 -7 19 -14 16 -16z m-73 1 c19 -15 19 -15 -3 -15 -12 0
-19 4 -16 10 9 14 -8 12 -25 -2 -12 -11 -12 -10 -1 5 16 20 20 21 45 2z m619
0 c4 -8 3 -16 -1 -19 -4 -3 -9 4 -9 15 -2 23 3 25 10 4z m-511 -27 c-9 -9 -15
-9 -24 1 -11 10 -10 11 5 6 10 -5 17 -2 17 6 0 7 3 9 7 6 4 -4 1 -13 -5 -19z
m-1561 -15 c-12 -20 -14 -14 -5 12 4 9 9 14 11 11 3 -2 0 -13 -6 -23z m1308
23 c-2 -2 -17 -6 -34 -10 -22 -5 -26 -4 -15 4 14 9 59 15 49 6z m55 -12 c8
-22 8 -24 -6 -24 -6 0 -8 3 -5 7 4 3 2 12 -4 20 -7 8 -8 13 -1 13 5 0 13 -7
16 -16z m36 -19 c0 -5 -5 -3 -10 5 -5 8 -10 20 -10 25 0 6 5 3 10 -5 5 -8 10
-19 10 -25z m547 10 c9 -24 -1 -27 -15 -5 -8 13 -8 20 -2 20 6 0 13 -7 17 -15z
m83 -25 c-12 -7 -11 -11 0 -27 12 -16 12 -16 0 -5 -8 7 -15 26 -16 42 -1 26 0
28 14 14 13 -13 13 -17 2 -24z m-486 -9 c-3 -3 -15 6 -27 18 l-22 24 27 -19
c14 -10 24 -21 22 -23z m-214 15 c-6 -6 -18 -5 -32 1 -21 10 -21 10 9 9 19 -1
28 -5 23 -10z m71 -36 c5 -3 -1 -12 -13 -19 -18 -11 -20 -11 -14 4 3 9 6 24 7
33 0 14 2 14 6 2 3 -8 10 -17 14 -20z m-1429 13 c-6 -2 -9 -10 -6 -15 4 -7 2
-8 -5 -4 -13 9 -5 26 12 25 9 0 8 -2 -1 -6z m1308 2 c0 -2 -10 -9 -22 -15 -22
-11 -22 -10 -4 4 21 17 26 19 26 11z m85 -5 c3 -5 -57 -40 -135 -78 -77 -37
-138 -71 -135 -74 4 -3 1 -9 -6 -14 -8 -4 -10 -3 -5 4 4 7 5 12 3 12 -3 0 -77
-36 -165 -80 -87 -44 -164 -80 -169 -80 -5 0 -27 -8 -49 -19 -40 -19 -127 -51
-154 -56 -8 -1 -14 -7 -13 -11 1 -5 -10 -10 -23 -10 -13 -1 -32 -5 -42 -9 -22
-10 -43 -16 -62 -17 -8 -1 -21 -8 -29 -16 -9 -9 -25 -12 -43 -8 -20 4 -28 2
-28 -8 0 -8 6 -17 13 -20 6 -3 0 -3 -14 0 -16 3 -42 -3 -70 -18 -25 -13 -63
-32 -87 -41 -32 -13 -40 -21 -35 -34 5 -15 4 -16 -8 -5 -9 8 -15 46 -17 117
-3 72 -8 105 -16 105 -35 0 -156 -176 -139 -203 3 -6 1 -7 -6 -3 -6 4 -23 1
-36 -8 -32 -21 -33 -21 -38 12 -4 25 -4 25 -3 -3 2 -38 -24 -66 -48 -53 -14 8
-16 18 -10 56 4 26 13 63 20 82 7 19 22 67 34 106 11 40 27 77 36 84 8 7 13
19 10 26 -3 7 0 16 6 20 7 5 8 2 3 -6 -5 -9 -4 -11 3 -6 9 5 8 15 -4 38 -12
23 -13 33 -4 42 8 8 9 6 4 -8 -5 -13 -4 -17 4 -12 8 4 10 2 6 -7 -3 -8 -1 -18
5 -21 12 -8 42 34 34 48 -3 6 -3 8 2 4 14 -13 65 31 59 50 -5 15 -4 15 5 2 26
-34 31 -49 19 -56 -7 -4 -8 -3 -4 4 4 7 4 12 -1 12 -7 0 -48 -75 -48 -89 0 -3
-3 -11 -7 -17 -4 -6 -12 -24 -18 -40 l-11 -29 25 24 c14 13 23 28 20 32 -3 5
1 6 9 3 8 -3 18 -1 22 5 3 6 18 11 32 11 23 0 25 -3 20 -30 -5 -23 -2 -33 16
-45 22 -15 82 -22 74 -7 -3 4 14 8 36 9 71 3 77 4 77 12 0 12 292 83 337 82
12 0 25 4 28 9 3 6 16 10 29 10 46 0 391 118 611 208 57 24 71 26 80 12z
m-185 -25 c7 -9 8 -15 2 -15 -5 0 -12 7 -16 15 -3 8 -4 15 -2 15 2 0 9 -7 16
-15z m804 -11 c3 -8 2 -12 -4 -9 -6 3 -10 10 -10 16 0 14 7 11 14 -7z m63 -16
c-3 -8 -6 -5 -6 6 -1 11 2 17 5 13 3 -3 4 -12 1 -19z m-2114 -25 c-5 -11 -8
-12 -13 -2 -5 7 -6 19 -3 26 5 11 8 12 13 2 5 -7 6 -19 3 -26z m1467 12 c16
-19 1 -19 -24 0 -16 12 -17 15 -4 15 8 0 21 -7 28 -15z m-95 -5 c-12 -5 -14
-9 -6 -9 8 -1 12 -4 8 -7 -9 -9 -28 6 -22 17 4 5 14 9 23 8 14 0 13 -2 -3 -9z
m759 -16 c3 -8 2 -12 -4 -9 -6 3 -10 10 -10 16 0 14 7 11 14 -7z m-2161 -9
c-3 -9 -8 -14 -10 -11 -3 3 -2 9 2 15 9 16 15 13 8 -4z m2084 -17 c-3 -7 -5
-2 -5 12 0 14 2 19 5 13 2 -7 2 -19 0 -25z m-1992 12 c3 -5 1 -10 -4 -10 -6 0
-11 5 -11 10 0 6 2 10 4 10 3 0 8 -4 11 -10z m1025 0 c-8 -5 -19 -10 -25 -10
-5 0 -3 5 5 10 8 5 20 10 25 10 6 0 3 -5 -5 -10z m695 0 c3 -6 -1 -7 -9 -4
-18 7 -21 14 -7 14 6 0 13 -4 16 -10z m402 -12 c-3 -8 -6 -5 -6 6 -1 11 2 17
5 13 3 -3 4 -12 1 -19z m-1220 6 c-3 -3 -12 -4 -19 -1 -8 3 -5 6 6 6 11 1 17
-2 13 -5z m329 -9 c-36 -19 -45 -19 -20 0 10 8 26 14 34 15 8 0 2 -7 -14 -15z
m-286 -10 c-19 -7 -44 -13 -55 -13 -11 0 -2 5 20 13 53 17 80 17 35 0z m1207
-100 c-3 -22 -4 -18 -5 13 -2 30 -6 41 -14 36 -8 -5 -9 -2 -5 10 4 10 7 27 8
39 1 12 5 2 10 -23 5 -25 8 -58 6 -75z m-59 80 c-3 -3 -9 2 -12 12 -6 14 -5
15 5 6 7 -7 10 -15 7 -18z m-2206 -17 c-8 -8 -9 -4 -5 13 4 13 8 18 11 10 2
-7 -1 -18 -6 -23z m1288 25 c0 -5 -12 -9 -27 -10 -19 -1 -22 1 -12 8 17 11 39
12 39 2z m789 -70 c-12 -26 -23 -54 -25 -61 -4 -22 -46 -102 -52 -102 -11 1
-65 90 -59 96 3 3 13 -9 23 -27 l17 -33 18 23 c12 14 19 18 19 10 0 -11 2 -11
10 1 5 8 10 22 10 30 0 13 -1 13 -10 0 -6 -9 -10 -10 -10 -3 0 7 6 16 14 20
16 10 56 85 57 110 1 16 2 16 6 1 2 -9 -6 -39 -18 -65z m46 35 c-4 -18 -14
-44 -22 -58 -8 -14 -12 -18 -9 -10 3 8 10 34 17 58 13 49 24 57 14 10z m-805
12 c0 -5 -2 -10 -4 -10 -3 0 -8 5 -11 10 -3 6 -1 10 4 10 6 0 11 -4 11 -10z
m844 -25 c5 -22 4 -26 -4 -15 -5 8 -10 24 -10 34 0 26 6 18 14 -19z m-623 8
c13 -16 12 -17 -3 -4 -10 7 -18 15 -18 17 0 8 8 3 21 -13z m-1128 -65 c2 -32
0 -58 -5 -58 -4 0 -8 30 -7 68 1 77 6 73 12 -10z m335 51 c-11 -8 -11 -10 1
-18 9 -6 5 -8 -13 -8 -25 0 -26 1 -11 17 8 9 12 20 8 24 -4 4 1 4 11 0 14 -5
15 -9 4 -15z m119 15 c-3 -3 -12 -4 -19 -1 -8 3 -5 6 6 6 11 1 17 -2 13 -5z
m733 -9 c-7 -9 -15 -13 -19 -10 -3 3 1 10 9 15 21 14 24 12 10 -5z m290 9 c0
-8 -19 -13 -24 -6 -3 5 1 9 9 9 8 0 15 -2 15 -3z m160 -29 c0 -5 -5 -3 -10 5
-5 8 -10 20 -10 25 0 6 5 3 10 -5 5 -8 10 -19 10 -25z m168 4 c-3 -8 -7 -3
-11 10 -4 17 -3 21 5 13 5 -5 8 -16 6 -23z m-2218 11 c0 -5 -5 -10 -11 -10 -5
0 -7 5 -4 10 3 6 8 10 11 10 2 0 4 -4 4 -10z m1207 -12 c-3 -8 -6 -5 -6 6 -1
11 2 17 5 13 3 -3 4 -12 1 -19z m699 7 c-8 -8 -18 -15 -22 -15 -3 0 -1 7 6 15
7 8 17 15 22 15 5 0 3 -7 -6 -15z m-1543 -15 c-3 -12 -8 -19 -11 -16 -5 6 5
36 12 36 2 0 2 -9 -1 -20z m71 4 c3 -8 2 -12 -4 -9 -6 3 -10 10 -10 16 0 14 7
11 14 -7z m351 6 c3 -5 1 -10 -4 -10 -6 0 -11 5 -11 10 0 6 2 10 4 10 3 0 8
-4 11 -10z m-294 -55 c10 -4 29 -3 42 1 12 3 19 4 16 0 -10 -10 -70 -26 -64
-16 3 4 -2 11 -11 14 -12 5 -15 2 -10 -9 3 -9 2 -14 -3 -10 -5 3 -11 -1 -14
-7 -3 -7 -5 2 -4 20 0 22 3 29 8 20 6 -9 9 -3 10 17 2 30 2 30 6 3 2 -16 12
-30 24 -33z m1116 18 c-3 -10 -5 -4 -5 12 0 17 2 24 5 18 2 -7 2 -21 0 -30z
m426 17 c3 -11 1 -18 -4 -14 -5 3 -9 12 -9 20 0 20 7 17 13 -6z m-506 4 c-3
-3 -12 -4 -19 -1 -8 3 -5 6 6 6 11 1 17 -2 13 -5z m-1387 -14 c0 -5 -4 -10
-10 -10 -5 0 -10 5 -10 10 0 6 5 10 10 10 6 0 10 -4 10 -10z m540 0 c-8 -5
-19 -10 -25 -10 -5 0 -3 5 5 10 8 5 20 10 25 10 6 0 3 -5 -5 -10z m425 -8 c-3
-3 -11 0 -18 7 -9 10 -8 11 6 5 10 -3 15 -9 12 -12z m45 3 c0 -2 -6 -5 -13 -8
-8 -3 -14 1 -14 8 0 7 6 11 14 8 7 -3 13 -6 13 -8z m770 -5 c6 -11 8 -20 6
-20 -3 0 -10 9 -16 20 -6 11 -8 20 -6 20 3 0 10 -9 16 -20z m-1933 -11 c-9 -6
-17 -17 -17 -26 0 -14 2 -14 16 3 14 18 15 18 4 -4 -12 -24 -30 -21 -30 5 0
16 31 45 40 36 3 -2 -3 -9 -13 -14z m1582 8 c8 -10 7 -14 -4 -14 -8 0 -16 6
-19 14 -3 7 -2 13 3 13 5 0 14 -6 20 -13z m558 -39 c-2 -13 -4 -5 -4 17 -1 22
1 32 4 23 2 -10 2 -28 0 -40z m-592 32 c3 -6 -1 -7 -9 -4 -18 7 -21 14 -7 14
6 0 13 -4 16 -10z m-1168 -20 c1 -11 -7 -25 -18 -30 -13 -7 -19 -7 -19 0 0 5
7 10 16 10 8 0 12 5 9 10 -3 6 -3 15 0 20 9 14 11 13 12 -10z m1286 0 c3 -11
3 -20 1 -20 -2 0 -8 9 -14 20 -6 11 -7 20 -2 20 6 0 12 -9 15 -20z m262 -31
c12 -22 12 -26 0 -26 -8 0 -12 4 -9 9 3 4 -2 18 -10 30 -9 12 -16 27 -16 33 0
11 13 -6 35 -46z m92 29 c-3 -8 -6 -5 -6 6 -1 11 2 17 5 13 3 -3 4 -12 1 -19z
m180 0 c-3 -8 -6 -5 -6 6 -1 11 2 17 5 13 3 -3 4 -12 1 -19z m120 0 c-3 -8 -6
-5 -6 6 -1 11 2 17 5 13 3 -3 4 -12 1 -19z m-679 -13 c-3 -3 -9 2 -12 12 -6
14 -5 15 5 6 7 -7 10 -15 7 -18z m-1393 5 c3 -5 1 -10 -4 -10 -6 0 -11 5 -11
10 0 6 2 10 4 10 3 0 8 -4 11 -10z m1846 -21 c-5 -13 -10 -19 -10 -12 -1 15
10 45 15 40 3 -2 0 -15 -5 -28z m88 -54 c-1 -33 -4 -73 -8 -90 -3 -16 -6 16
-6 72 0 55 3 96 7 90 4 -7 7 -39 7 -72z m-285 58 c4 -9 2 -21 -4 -27 -8 -8 -9
-6 -5 7 4 10 2 17 -4 17 -6 0 -11 5 -11 10 0 16 17 11 24 -7z m111 7 c3 -5 1
-10 -4 -10 -6 0 -11 5 -11 10 0 6 2 10 4 10 3 0 8 -4 11 -10z m258 -22 c7 -4
7 -17 0 -40 l-11 -33 0 30 c0 17 -2 41 -6 55 -3 14 -3 18 0 10 4 -8 12 -18 17
-22z m35 -63 c0 -16 -2 -15 -8 5 -4 14 -8 41 -8 60 l0 35 9 -40 c4 -22 8 -49
7 -60z m-698 43 c0 -11 5 -29 12 -41 10 -19 9 -20 -4 -9 -9 7 -19 27 -23 45
-6 28 -8 30 -15 12 -10 -23 -13 -5 -4 19 8 22 34 2 34 -26z m607 -10 c-2 -13
-4 -5 -4 17 -1 22 1 32 4 23 2 -10 2 -28 0 -40z m-1247 26 c0 -2 -7 -4 -15 -4
-8 0 -15 4 -15 10 0 5 7 7 15 4 8 -4 15 -8 15 -10z m68 -10 c20 -21 1 -17 -33
7 -27 19 -28 20 -5 13 13 -3 30 -13 38 -20z m-1048 6 c0 -5 -2 -10 -4 -10 -3
0 -8 5 -11 10 -3 6 -1 10 4 10 6 0 11 -4 11 -10z m295 -12 c5 -4 0 -6 -12 -6
-13 1 -19 7 -16 15 3 8 8 10 12 6 3 -4 10 -11 16 -15z m706 -35 c8 -8 -4 -4
-25 11 -21 14 -43 26 -47 26 -5 0 -9 4 -9 10 0 11 63 -25 81 -47z m683 22 c-4
-8 -8 -15 -10 -15 -2 0 -4 7 -4 15 0 8 4 15 10 15 5 0 7 -7 4 -15z m455 -39
c-9 -8 -10 -7 -5 7 3 10 7 26 7 35 1 9 4 6 6 -7 3 -13 -1 -28 -8 -35z m-41 27
c0 -10 2 -36 6 -58 5 -32 4 -35 -4 -17 -5 13 -14 20 -20 17 -6 -4 -10 -3 -9 2
4 20 -2 24 -18 12 -15 -13 -15 -12 -3 8 13 20 15 20 27 5 15 -21 17 -8 2 20
-8 15 -8 19 0 14 6 -4 11 -2 11 3 0 6 2 11 4 11 3 0 5 -8 4 -17z m-2108 -14
c0 -5 -4 -9 -10 -9 -5 0 -10 7 -10 16 0 8 5 12 10 9 6 -3 10 -10 10 -16z
m1701 -6 c-12 -20 -14 -14 -5 12 4 9 9 14 11 11 3 -2 0 -13 -6 -23z m-854 11
c-3 -3 -12 -4 -19 -1 -8 3 -5 6 6 6 11 1 17 -2 13 -5z m130 -29 c0 -7 -6 -11
-13 -8 -8 3 -12 10 -11 16 1 7 -4 11 -11 9 -8 -1 -11 2 -7 8 8 12 42 -8 42
-25z m573 25 c0 -5 -2 -10 -4 -10 -3 0 -8 5 -11 10 -3 6 -1 10 4 10 6 0 11 -4
11 -10z m637 -32 c-3 -7 -5 -2 -5 12 0 14 2 19 5 13 2 -7 2 -19 0 -25z m-1420
0 c-14 -7 -14 -12 -1 -44 22 -52 12 -51 -12 1 -11 24 -16 42 -12 39 4 -3 11 2
14 10 3 9 11 13 16 10 7 -4 4 -10 -5 -16z m833 8 c0 -14 23 -28 49 -30 7 -1
17 -11 22 -23 6 -17 5 -21 -7 -16 -7 3 -14 12 -14 21 0 8 -3 12 -6 9 -4 -4
-20 3 -35 14 -29 20 -38 39 -19 39 6 0 10 -6 10 -14z m161 -27 c-9 -23 -10
-22 -10 11 -1 23 2 31 9 24 7 -7 7 -19 1 -35z m223 25 c3 -8 2 -12 -4 -9 -6 3
-10 10 -10 16 0 14 7 11 14 -7z m255 -66 c-1 -55 -3 -73 -8 -53 -7 30 -3 135
5 135 2 0 4 -37 3 -82z m-710 63 c10 -7 7 -9 -12 -8 -14 1 -23 5 -20 10 6 9
15 9 32 -2z m-454 -21 c3 -5 16 -10 27 -10 12 0 18 -3 15 -6 -8 -8 61 -64 78
-64 7 0 19 -7 26 -17 12 -14 10 -14 -21 2 -44 22 -155 105 -142 105 6 0 14 -4
17 -10z m1072 -12 c-3 -8 -6 -5 -6 6 -1 11 2 17 5 13 3 -3 4 -12 1 -19z m154
-60 c1 -57 4 -75 9 -58 4 14 8 18 9 10 0 -8 -5 -32 -13 -53 -13 -38 -13 -36
-15 55 -1 51 -4 101 -7 111 -3 9 -1 17 5 17 7 0 11 -31 12 -82z m16 35 c-3
-10 -5 -2 -5 17 0 19 2 27 5 18 2 -10 2 -26 0 -35z m20 10 c-3 -10 -5 -4 -5
12 0 17 2 24 5 18 2 -7 2 -21 0 -30z m-2161 -5 c-18 -26 -22 -17 -5 14 6 11
13 17 16 15 3 -3 -2 -16 -11 -29z m882 -7 c-7 -2 -22 -8 -33 -13 -20 -9 -20
-9 -1 6 20 16 20 16 0 32 -13 11 -9 10 14 -3 18 -10 27 -19 20 -22z m107 29
c3 -6 -1 -7 -9 -4 -18 7 -21 14 -7 14 6 0 13 -4 16 -10z m559 2 c3 -5 -1 -9
-9 -9 -8 0 -15 4 -15 9 0 4 4 8 9 8 6 0 12 -4 15 -8z m354 -17 c-3 -3 -9 2
-12 12 -6 14 -5 15 5 6 7 -7 10 -15 7 -18z m-84 -33 c-5 -54 -10 -62 -16 -28
-3 14 -1 23 3 20 11 -7 11 -1 0 29 -7 18 -6 24 4 24 10 0 12 -12 9 -45z
m-1390 22 c3 -8 2 -12 -4 -9 -6 3 -10 10 -10 16 0 14 7 11 14 -7z m93 -36
c-16 -22 -18 -31 -9 -40 9 -9 12 -9 12 0 0 7 5 12 10 12 6 0 4 -10 -5 -23 -8
-13 -12 -27 -8 -32 5 -4 3 -5 -4 -1 -7 4 -9 14 -6 23 4 10 2 14 -5 9 -6 -3
-13 -2 -16 2 -6 11 16 62 27 62 4 0 7 5 7 11 0 7 -9 9 -22 6 -22 -6 -22 -5 -4
8 14 11 21 11 31 2 10 -9 8 -17 -8 -39z m903 42 c0 -3 -5 -11 -12 -18 -7 -7
-8 -12 -2 -12 6 0 15 5 21 11 9 9 15 8 26 -3 13 -13 11 -15 -21 -13 -28 1 -36
5 -37 21 -1 11 5 21 12 21 7 0 13 -3 13 -7z m177 -12 c-3 -8 -6 -5 -6 6 -1 11
2 17 5 13 3 -3 4 -12 1 -19z m-1540 -25 c-3 -10 -5 -4 -5 12 0 17 2 24 5 18 2
-7 2 -21 0 -30z m1893 -19 c-17 -50 -24 -35 -9 16 7 24 15 38 17 32 2 -7 -2
-28 -8 -48z m-1566 30 c3 -8 2 -12 -4 -9 -6 3 -10 -5 -10 -19 0 -14 5 -28 10
-31 6 -3 10 -11 10 -18 0 -6 -7 -2 -15 10 -9 12 -14 36 -13 52 2 34 12 40 22
15z m1543 -4 c-1 -12 -5 -16 -10 -11 -5 5 -6 14 -3 20 11 16 15 13 13 -9z
m-1897 0 c7 12 9 11 8 -6 -2 -26 -38 -21 -38 5 0 14 2 14 10 1 9 -13 11 -13
20 0z m910 -15 c23 -17 28 -25 17 -25 -9 0 -17 3 -17 8 0 4 -12 15 -27 24 -16
10 -23 18 -17 18 5 0 25 -11 44 -25z m613 -7 c-7 -43 -13 -49 -13 -11 0 25 6
43 16 43 1 0 0 -15 -3 -32z m74 -20 c-2 -13 -4 -5 -4 17 -1 22 1 32 4 23 2
-10 2 -28 0 -40z m-1157 12 c0 -6 -9 -2 -20 7 -11 10 -20 19 -20 21 0 1 9 -2
20 -8 11 -6 20 -15 20 -20z m126 -35 c15 -15 21 -30 17 -41 -5 -13 -3 -15 7
-9 8 5 11 4 7 -3 -9 -13 -30 -10 -51 7 -9 8 -19 11 -23 8 -3 -4 5 -15 18 -26
13 -11 20 -20 14 -20 -11 0 -55 34 -55 42 0 14 35 15 50 2 16 -14 18 -14 24 0
4 11 -6 27 -29 48 -19 17 -35 38 -35 46 0 11 5 9 16 -7 9 -13 26 -34 40 -47z
m1409 25 c-4 -17 -9 -29 -12 -26 -3 2 -2 19 2 36 4 17 9 29 12 26 3 -2 2 -19
-2 -36z m-1375 5 c14 -19 14 -19 -2 -6 -10 7 -18 18 -18 24 0 6 1 8 3 6 1 -2
9 -13 17 -24z m30 15 c0 -5 -4 -10 -10 -10 -5 0 -10 5 -10 10 0 6 5 10 10 10
6 0 10 -4 10 -10z m448 -5 c2 -1 -8 -5 -22 -7 -14 -3 -23 -2 -21 3 3 4 -1 10
-7 13 -7 3 1 3 17 -1 17 -3 31 -7 33 -8z m112 5 c18 -12 2 -12 -25 0 -13 6
-15 9 -5 9 8 0 22 -4 30 -9z m387 -12 c-3 -8 -6 -5 -6 6 -1 11 2 17 5 13 3 -3
4 -12 1 -19z m-1222 -88 c36 -55 65 -102 65 -104 0 -2 -17 -2 -39 1 -50 7
-104 -11 -149 -51 -25 -21 -34 -25 -29 -13 4 10 7 70 7 133 0 106 1 114 19
114 11 0 23 5 26 10 15 25 39 3 100 -90z m20 90 c3 -5 1 -10 -4 -10 -6 0 -11
5 -11 10 0 6 2 10 4 10 3 0 8 -4 11 -10z m-459 -29 c-1 -17 -5 -26 -9 -21 -5
4 -6 17 -2 29 9 29 12 26 11 -8z m111 7 c-3 -8 -6 -5 -6 6 -1 11 2 17 5 13 3
-3 4 -12 1 -19z m1213 1 c16 -9 -3 -7 -90 11 -41 9 -40 9 15 4 33 -3 67 -10
75 -15z m55 3 c-3 -3 -11 0 -18 7 -9 10 -8 11 6 5 10 -3 15 -9 12 -12z m175 8
c8 -5 12 -11 9 -14 -3 -3 -14 1 -25 9 -21 16 -8 20 16 5z m74 -23 c4 -19 3
-26 -4 -22 -5 3 -10 18 -10 32 0 32 5 28 14 -10z m266 7 c0 -8 -4 -12 -10 -9
-5 3 -10 13 -10 21 0 8 5 12 10 9 6 -3 10 -13 10 -21z m206 -79 c-2 -11 -4 -5
-5 13 -1 22 -5 31 -13 26 -8 -5 -9 0 -5 17 4 13 7 31 8 39 1 8 5 -5 10 -30 5
-25 8 -54 5 -65z m-2046 76 c0 -6 -4 -13 -10 -16 -5 -3 -10 1 -10 9 0 9 5 16
10 16 6 0 10 -4 10 -9z m670 -1 c0 -5 -2 -10 -4 -10 -3 0 -8 5 -11 10 -3 6 -1
10 4 10 6 0 11 -4 11 -10z m1319 -48 c1 -7 -3 -10 -9 -7 -5 3 -10 21 -9 38 1
31 1 31 9 7 4 -14 8 -31 9 -38z m-1834 38 c-3 -5 -12 -10 -18 -10 -7 0 -6 4 3
10 19 12 23 12 15 0z m800 0 c-3 -5 -11 -10 -16 -10 -6 0 -7 5 -4 10 3 6 11
10 16 10 6 0 7 -4 4 -10z m-924 -75 l-8 -70 -2 57 c-1 51 6 94 15 86 1 -2 -1
-35 -5 -73z m31 -82 c2 -55 0 -96 -4 -90 -4 7 -7 66 -6 132 1 133 6 115 10
-42z m145 106 c0 -28 -1 -48 -4 -46 -7 8 -12 97 -5 97 4 0 8 -23 9 -51z m912
34 c7 -13 12 -14 23 -6 9 8 21 8 43 -1 19 -8 25 -15 17 -20 -7 -4 -12 -2 -12
3 0 6 -7 11 -15 11 -8 0 -15 -4 -15 -10 0 -5 3 -10 8 -10 4 0 21 -11 37 -25
19 -16 4 -10 -42 16 -40 23 -73 46 -73 50 0 15 19 10 29 -8z m251 7 c0 -5 -4
-10 -9 -10 -6 0 -13 5 -16 10 -3 6 1 10 9 10 9 0 16 -4 16 -10z m254 -65 c5
-49 5 -49 -4 -10 -19 77 -21 91 -11 75 5 -8 12 -37 15 -65z m553 43 c-3 -7 -5
-2 -5 12 0 14 2 19 5 13 2 -7 2 -19 0 -25z m-2049 -34 l-3 -39 -5 47 c-3 26
-1 43 3 39 5 -5 7 -26 5 -47z m308 33 c14 17 14 17 5 -4 -14 -27 -14 -36 -1
-28 6 3 10 4 10 1 0 -3 -4 -7 -10 -11 -14 -8 -43 42 -33 57 6 9 9 6 11 -10 3
-23 4 -23 18 -5z m1090 -31 c-2 -6 -8 0 -14 14 -5 14 -7 29 -4 34 7 12 24 -33
18 -48z m431 32 c-3 -8 -6 -5 -6 6 -1 11 2 17 5 13 3 -3 4 -12 1 -19z m-1959
-70 c-1 -72 -2 -76 -7 -33 -6 48 -3 115 5 115 2 0 3 -37 2 -82z m744 64 c-1
-7 9 -17 22 -22 13 -5 28 -14 32 -21 4 -7 -8 -4 -27 8 -19 11 -33 26 -31 32 2
8 -4 10 -17 6 -11 -3 -22 -2 -24 3 -3 4 6 8 21 7 16 0 26 -6 24 -13z m528 -8
c0 -2 -9 -4 -20 -4 -11 0 -20 4 -20 9 0 5 9 7 20 4 11 -3 20 -7 20 -9z m317
-16 c-3 -7 -5 -2 -5 12 0 14 2 19 5 13 2 -7 2 -19 0 -25z m-1103 -5 c11 -15
20 -31 19 -35 -2 -5 1 -8 6 -8 4 0 20 -12 34 -26 l26 -26 -21 -18 -22 -18 32
-36 c17 -20 34 -36 37 -35 17 2 27 -8 13 -14 -22 -8 -111 94 -102 117 5 13 9
14 20 5 21 -17 29 -3 10 16 -17 18 -52 13 -41 -5 3 -5 2 -10 -4 -10 -17 0 -22
18 -7 23 8 3 14 15 13 27 -1 13 -6 19 -15 15 -7 -3 -10 0 -7 6 4 6 -1 19 -11
30 -9 10 -14 19 -9 19 4 0 17 -12 29 -27z m453 -5 c-3 -7 -5 -2 -5 12 0 14 2
19 5 13 2 -7 2 -19 0 -25z m568 -8 c7 -23 21 -26 28 -7 4 9 6 9 6 0 1 -6 -3
-14 -8 -17 -15 -9 -41 5 -41 21 0 9 -8 22 -17 30 -16 13 -16 13 4 4 12 -6 25
-20 28 -31z m342 18 c-3 -8 -6 -5 -6 6 -1 11 2 17 5 13 3 -3 4 -12 1 -19z
m165 -10 c-8 -8 -9 -4 -5 13 4 13 8 18 11 10 2 -7 -1 -18 -6 -23z m-1844 -53
l1 -20 -9 20 c-5 11 -8 34 -8 50 l0 30 8 -30 c4 -16 8 -39 8 -50z m522 60 c18
-22 159 -102 247 -140 44 -19 130 -48 192 -63 61 -16 114 -32 117 -34 3 -3
-12 -9 -33 -13 -20 -4 -49 -13 -64 -20 -33 -18 -89 -64 -89 -75 0 -4 16 7 35
25 43 39 119 65 190 65 93 0 261 -53 272 -86 7 -20 -47 -35 -106 -28 -74 8
-199 -11 -264 -42 -29 -13 -74 -45 -101 -71 l-48 -48 -95 100 c-126 133 -133
148 -52 103 35 -20 93 -50 128 -68 l63 -31 -21 -23 c-34 -36 -24 -40 17 -8 84
66 181 99 329 111 l98 8 -77 2 c-42 0 -109 -6 -148 -14 -73 -15 -170 -52 -181
-68 -9 -12 -29 0 -29 17 0 7 -19 29 -42 47 -67 53 -209 183 -254 230 -62 67
-118 139 -106 139 5 0 15 -7 22 -15z m410 -21 c0 -3 -7 -1 -15 6 -8 7 -15 17
-15 22 0 5 7 3 15 -6 8 -8 15 -18 15 -22z m225 26 c13 -5 14 -9 5 -9 -8 0 -24
4 -35 9 -13 5 -14 9 -5 9 8 0 24 -4 35 -9z m125 0 c8 -5 11 -10 5 -10 -5 0
-17 5 -25 10 -8 5 -10 10 -5 10 6 0 17 -5 25 -10z m517 -12 c-3 -8 -6 -5 -6 6
-1 11 2 17 5 13 3 -3 4 -12 1 -19z m196 -32 c3 -30 1 -43 -4 -35 -8 13 -13 97
-5 88 2 -2 6 -26 9 -53z m24 17 c-3 -10 -5 -4 -5 12 0 17 2 24 5 18 2 -7 2
-21 0 -30z m-1547 12 c-7 -9 -15 -13 -17 -11 -7 7 7 26 19 26 6 0 6 -6 -2 -15z
m349 -7 c-9 -16 -14 -19 -17 -9 -2 7 2 17 9 22 20 13 21 11 8 -13z m585 -18
c4 -25 3 -31 -4 -20 -5 8 -10 26 -10 39 0 32 6 24 14 -19z m-973 7 c-10 -9
-11 -8 -5 6 3 10 9 15 12 12 3 -3 0 -11 -7 -18z m1226 1 c-3 -8 -6 -5 -6 6 -1
11 2 17 5 13 3 -3 4 -12 1 -19z m307 -12 c-3 -15 -8 -25 -11 -23 -2 3 -1 17 3
31 3 15 8 25 11 23 2 -3 1 -17 -3 -31z m-2277 -13 c-3 -10 -5 -4 -5 12 0 17 2
24 5 18 2 -7 2 -21 0 -30z m248 -12 c0 -27 -3 -47 -7 -44 -13 7 -7 93 6 93 0
0 1 -22 1 -49z m352 34 c0 -8 -4 -12 -9 -9 -5 3 -6 10 -3 15 9 13 12 11 12 -6z
m104 -2 c13 -16 12 -17 -3 -4 -10 7 -18 15 -18 17 0 8 8 3 21 -13z m114 -14
c-3 -4 -12 -6 -20 -2 -18 6 -20 -8 -2 -26 10 -11 8 -11 -10 0 -20 12 -20 14
-6 36 12 18 19 21 29 12 8 -6 11 -15 9 -20z m-871 -141 c-4 -186 -14 -227 -14
-57 0 99 8 219 15 219 1 0 1 -73 -1 -162z m1630 153 c4 -5 -3 -7 -14 -4 -23 6
-26 13 -6 13 8 0 17 -4 20 -9z m574 -16 c-3 -3 -9 2 -12 12 -6 14 -5 15 5 6 7
-7 10 -15 7 -18z m-2171 -127 c-2 -29 -3 -8 -3 47 0 55 1 79 3 53 2 -26 2 -71
0 -100z m1077 129 c3 3 6 1 6 -5 0 -16 -12 -15 -36 4 -18 15 -18 15 2 5 12 -6
24 -7 28 -4z m291 -5 c-3 -3 -11 0 -18 7 -9 10 -8 11 6 5 10 -3 15 -9 12 -12z
m78 -3 c13 1 100 -40 95 -44 -9 -9 -127 48 -121 58 3 5 9 4 13 -3 4 -6 10 -11
13 -11z m630 -86 c1 -33 -2 -59 -6 -56 -4 3 -7 26 -6 51 0 26 -2 63 -5 82 -6
32 -6 33 5 10 6 -14 12 -53 12 -87z m-1058 87 c3 -6 -1 -7 -9 -4 -18 7 -21 14
-7 14 6 0 13 -4 16 -10z m630 0 c4 -6 -6 -10 -22 -9 -25 0 -26 1 -8 9 11 5 21
9 22 9 1 1 5 -3 8 -9z m125 -56 c4 -33 11 -77 14 -99 l6 -40 -13 45 c-14 47
-30 166 -21 157 3 -3 9 -31 14 -63z m-930 -31 l25 -28 -30 25 c-16 14 -45 40
-65 59 l-35 34 40 -30 c22 -17 51 -44 65 -60z m64 18 c-2 -2 -12 3 -22 12 -10
10 -22 14 -26 10 -4 -4 -4 1 0 11 5 14 4 17 -4 12 -8 -4 -12 0 -12 10 0 14 8
10 34 -16 19 -19 32 -37 30 -39z m441 55 c12 -12 12 -15 -1 -20 -24 -9 -31 -7
-14 4 10 6 11 10 3 10 -7 0 -13 5 -13 10 0 14 9 12 25 -4z m208 -4 c-4 -10 -9
-10 -22 0 -9 7 -17 13 -19 14 -2 1 8 1 21 0 15 0 23 -6 20 -14z m-493 -2 c8
-5 11 -10 5 -10 -5 0 -17 5 -25 10 -8 5 -10 10 -5 10 6 0 17 -5 25 -10z m87 4
c-3 -3 -12 -4 -19 -1 -8 3 -5 6 6 6 11 1 17 -2 13 -5z m549 -9 c10 -8 15 -14
9 -14 -5 0 -19 6 -29 14 -11 8 -15 15 -10 15 6 0 19 -7 30 -15z m501 -22 c-3
-10 -5 -4 -5 12 0 17 2 24 5 18 2 -7 2 -21 0 -30z m-1082 17 c3 -5 -3 -10 -15
-10 -12 0 -18 5 -15 10 3 6 10 10 15 10 5 0 12 -4 15 -10z m321 -6 c18 -14 18
-14 -6 -3 -31 14 -36 19 -24 19 6 0 19 -7 30 -16z m239 -12 c-6 -7 -45 9 -45
18 0 4 11 3 24 -3 14 -7 23 -13 21 -15z m602 -4 c-3 -7 -5 -2 -5 12 0 14 2 19
5 13 2 -7 2 -19 0 -25z m-886 9 c-1 -4 -3 -7 -6 -7 -40 0 -40 0 -25 10 16 10
32 9 31 -3z m906 -9 c-3 -8 -6 -5 -6 6 -1 11 2 17 5 13 3 -3 4 -12 1 -19z
m-1926 -5 c10 -11 10 -14 2 -9 -8 4 -13 1 -13 -9 0 -9 5 -13 11 -9 8 4 8 0 0
-15 -16 -29 -17 -27 -19 19 -2 45 0 47 19 23z m1659 -11 c0 -15 -2 -15 -10 -2
-13 20 -13 33 0 25 6 -3 10 -14 10 -23z m121 -8 c-5 -16 -10 -21 -10 -12 -1
18 10 51 15 45 2 -1 -1 -16 -5 -33z m-1486 -25 c70 -92 246 -259 339 -320 89
-60 255 -149 277 -149 8 0 9 4 0 13 -6 8 -8 16 -5 20 3 3 -4 11 -16 17 l-22
12 24 25 c37 41 198 99 198 71 0 -7 -23 -48 -38 -68 -1 -2 -7 2 -12 10 -18 29
-30 -2 -19 -50 11 -48 54 -130 69 -130 5 0 -2 19 -15 43 -34 58 -32 87 10 131
19 21 36 45 36 54 1 9 5 -7 9 -37 9 -60 25 -86 36 -55 4 10 18 44 32 74 l25
55 9 -32 c11 -40 21 -43 16 -5 -3 24 1 27 30 30 28 3 32 0 32 -22 0 -14 5 -28
10 -31 20 -13 9 -76 -35 -200 -6 -17 -4 -17 14 4 31 34 53 122 49 192 -2 42 1
59 10 59 6 0 12 -2 12 -4 0 -2 4 -26 10 -55 6 -34 6 -60 -1 -78 -7 -19 -6 -28
2 -34 23 -14 1 -73 -34 -92 -114 -62 -142 -71 -207 -71 -60 1 -62 0 -25 -8 49
-11 112 -6 143 11 13 7 36 10 50 7 18 -5 22 -4 13 3 -11 7 -9 13 8 30 11 11
28 21 36 21 18 0 20 -79 5 -235 l-9 -100 -83 -79 c-78 -74 -164 -149 -254
-222 -22 -18 -54 -44 -72 -59 -19 -16 -45 -28 -60 -28 -15 0 -74 17 -132 37
-58 20 -168 55 -245 78 -227 66 -300 112 -390 244 -26 38 -64 87 -85 110 -36
39 -61 100 -76 186 l-6 33 23 -27 c25 -29 88 -78 100 -78 4 0 -2 17 -12 37
-10 21 -19 42 -19 48 0 12 77 61 91 57 5 -1 9 2 9 8 0 9 51 40 66 40 13 0 -8
-76 -25 -91 -17 -14 -17 -19 -5 -55 14 -41 64 -94 89 -94 10 0 7 7 -10 24 -13
13 -33 42 -45 65 -17 35 -19 45 -9 58 7 8 15 33 18 56 4 26 12 43 21 45 12 2
15 -6 12 -38 -2 -22 -1 -51 2 -65 8 -30 59 -59 92 -51 35 9 33 68 -5 128 -29
46 -29 46 -8 52 56 15 65 9 77 -51 7 -32 16 -73 21 -91 4 -20 4 -44 -2 -59
-12 -32 -5 -42 10 -14 20 36 24 108 11 178 -13 70 -35 104 -78 117 -28 9 -135
-10 -194 -34 -31 -13 -54 -17 -68 -12 -21 8 -21 8 7 21 15 7 60 19 98 26 66
13 68 13 24 14 -52 1 -142 -27 -205 -64 -59 -35 -68 -55 -10 -22 33 18 53 24
68 18 19 -7 16 -10 -25 -34 -45 -27 -73 -32 -113 -21 -19 5 -22 17 -33 120 -9
80 -9 119 -2 128 5 6 26 54 46 106 44 114 97 168 190 191 72 17 89 12 130 -42z
m765 41 c0 -5 -2 -10 -4 -10 -3 0 -8 5 -11 10 -3 6 -1 10 4 10 6 0 11 -4 11
-10z m70 -5 c17 -9 30 -18 30 -21 0 -4 -59 23 -69 32 -10 9 13 3 39 -11z m218
-10 c1 -20 -3 -25 -21 -24 -17 1 -18 2 -4 6 9 2 17 9 17 14 0 12 -7 11 -33 -2
l-22 -12 20 21 c27 28 40 27 43 -3z m-1581 -7 c-3 -8 -6 -5 -6 6 -1 11 2 17 5
13 3 -3 4 -12 1 -19z m174 -38 c-5 -25 -9 -35 -10 -24 -1 28 11 92 16 79 1 -6
-1 -30 -6 -55z m444 50 c-3 -5 -1 -10 5 -10 6 0 8 -5 4 -11 -5 -8 -10 -6 -16
5 -5 9 -14 16 -20 16 -7 0 -6 -6 2 -15 7 -9 11 -18 8 -20 -9 -9 -30 24 -23 35
3 5 15 10 26 10 11 0 17 -4 14 -10z m430 0 c8 -13 -5 -13 -25 0 -13 8 -13 10
2 10 9 0 20 -4 23 -10z m112 4 c-3 -3 -12 -4 -19 -1 -8 3 -5 6 6 6 11 1 17 -2
13 -5z m70 0 c-3 -3 -12 -4 -19 -1 -8 3 -5 6 6 6 11 1 17 -2 13 -5z m268 -25
c22 -10 29 -16 15 -12 -14 3 -43 14 -65 24 -22 11 -29 16 -15 13 14 -3 43 -15
65 -25z m172 9 c-3 -8 -6 -5 -6 6 -1 11 2 17 5 13 3 -3 4 -12 1 -19z m30 -15
c-3 -10 -5 -4 -5 12 0 17 2 24 5 18 2 -7 2 -21 0 -30z m30 15 c-3 -8 -6 -5 -6
6 -1 11 2 17 5 13 3 -3 4 -12 1 -19z m111 -18 c-2 -7 -10 1 -17 16 -12 27 -11
28 4 12 10 -9 16 -21 13 -28z m204 -2 c-10 -22 -11 -21 -11 12 -1 26 2 31 11
22 8 -8 8 -17 0 -34z m44 -10 c-3 -29 -5 -57 -6 -62 0 -6 -6 -4 -12 2 -8 8 -9
15 -3 20 6 4 10 15 11 25 2 52 5 67 10 67 3 0 3 -24 0 -52z m-2024 -63 c3 -55
2 -86 -2 -70 -8 31 -13 182 -6 174 2 -2 5 -49 8 -104z m727 72 c0 -9 -2 -8 -6
1 -2 6 -10 9 -15 6 -7 -4 -8 -2 -4 5 9 13 26 5 25 -12z m296 13 c3 -6 -1 -7
-9 -4 -18 7 -21 14 -7 14 6 0 13 -4 16 -10z m98 3 c-7 -2 -19 -2 -25 0 -7 3
-2 5 12 5 14 0 19 -2 13 -5z m274 -69 c-5 -5 -127 59 -127 67 0 4 30 -9 66
-28 36 -19 64 -37 61 -39z m343 43 c0 -5 -4 -5 -10 -2 -5 3 -10 14 -10 23 0
15 2 15 10 2 5 -8 10 -19 10 -23z m147 11 c-3 -8 -6 -5 -6 6 -1 11 2 17 5 13
3 -3 4 -12 1 -19z m190 -10 c-3 -7 -5 -2 -5 12 0 14 2 19 5 13 2 -7 2 -19 0
-25z m-2107 -57 c0 -71 -6 -63 -14 19 -5 45 -4 60 4 50 5 -8 10 -39 10 -69z
m97 17 c-2 -13 -4 -3 -4 22 0 25 2 35 4 23 2 -13 2 -33 0 -45z m538 33 c-6 -5
-25 10 -25 20 0 5 6 4 14 -3 8 -7 12 -15 11 -17z m500 12 c37 -7 78 -33 53
-33 -9 0 -19 4 -22 9 -4 5 -24 12 -46 16 -22 4 -43 12 -47 18 -4 7 0 8 13 3
10 -4 33 -10 49 -13z m307 -13 c34 -16 57 -30 51 -30 -14 0 -123 50 -123 56 0
7 7 4 72 -26z m298 11 c0 -6 -4 -13 -10 -16 -5 -3 -10 1 -10 9 0 9 5 16 10 16
6 0 10 -4 10 -9z m-946 -30 c-4 -3 -9 0 -11 7 -3 6 -10 9 -15 6 -7 -4 -8 -2
-4 5 6 9 11 9 22 0 8 -6 12 -15 8 -18z m763 7 c-3 -8 -6 -5 -6 6 -1 11 2 17 5
13 3 -3 4 -12 1 -19z m420 -10 c-3 -7 -5 -2 -5 12 0 14 2 19 5 13 2 -7 2 -19
0 -25z m-1228 -12 c-3 -3 -11 5 -18 17 -13 21 -12 21 5 5 10 -10 16 -20 13
-22z m898 -18 c-2 -13 -4 -5 -4 17 -1 22 1 32 4 23 2 -10 2 -28 0 -40z m-960
17 c15 -13 24 -27 20 -31 -4 -4 -7 -2 -7 4 0 7 -5 12 -11 12 -11 0 -39 24 -39
34 0 11 11 6 37 -19z m658 15 c3 -6 -1 -7 -9 -4 -18 7 -21 14 -7 14 6 0 13 -4
16 -10z m486 -54 c13 -14 11 -53 -2 -62 -7 -4 -9 0 -5 12 3 11 -1 37 -8 59 -8
22 -11 44 -8 50 4 5 8 -3 10 -20 2 -16 8 -34 13 -39z m37 -12 l-3 -59 -5 67
c-3 37 -1 63 3 59 4 -4 7 -35 5 -67z m-1921 44 c-3 -8 -6 -5 -6 6 -1 11 2 17
5 13 3 -3 4 -12 1 -19z m2240 -10 c-3 -7 -5 -2 -5 12 0 14 2 19 5 13 2 -7 2
-19 0 -25z m-886 9 c-4 -4 -18 -3 -32 2 -23 9 -22 9 8 8 18 -1 28 -6 24 -10z
m249 -24 c0 -1 -11 2 -25 9 -13 6 -22 15 -19 19 4 7 44 -19 44 -28z m-770 19
c0 -5 10 -14 23 -20 12 -6 17 -11 11 -11 -7 -1 -22 8 -35 19 -13 10 -18 19
-11 20 6 0 12 -4 12 -8z m126 -81 c-4 -2 -2 -7 5 -12 8 -5 9 -9 3 -9 -5 0 -19
7 -30 15 -14 10 -15 14 -4 15 8 0 -1 16 -25 42 l-40 42 50 -44 c28 -25 46 -47
41 -49z m1125 -31 c43 -108 44 -165 2 -221 -62 -84 -159 -198 -167 -199 -5 0
-6 17 -2 38 8 42 10 60 21 155 4 37 11 67 16 67 13 0 49 108 49 147 0 30 3 35
13 25 8 -9 12 -45 12 -107 0 -59 4 -94 10 -91 10 3 11 108 0 163 -3 18 -13 39
-21 48 -12 11 -14 26 -9 56 7 40 8 41 25 23 9 -11 32 -57 51 -104z m-1974 43
c-2 -16 -4 -5 -4 22 0 28 2 40 4 28 2 -13 2 -35 0 -50z m73 34 c0 -5 -5 -5
-11 -1 -7 4 -9 0 -5 -13 4 -11 2 -31 -3 -44 -9 -24 -9 -17 -2 81 1 13 2 13 11
0 5 -8 10 -19 10 -23z m1287 27 c-3 -3 -12 -4 -19 -1 -8 3 -5 6 6 6 11 1 17
-2 13 -5z m370 -31 c-3 -10 -5 -4 -5 12 0 17 2 24 5 18 2 -7 2 -21 0 -30z
m293 0 c-11 -17 -11 -17 -6 0 3 10 6 24 7 30 0 9 2 9 5 0 3 -7 0 -20 -6 -30z
m-1447 14 c-2 -4 1 -14 7 -22 20 -24 6 -17 -18 8 -20 21 -20 23 -2 23 10 0 16
-4 13 -9z m867 3 c8 -5 11 -10 5 -10 -5 0 -17 5 -25 10 -8 5 -10 10 -5 10 6 0
17 -5 25 -10z m177 -37 c-3 -10 -5 -2 -5 17 0 19 2 27 5 18 2 -10 2 -26 0 -35z
m-1840 -25 c-2 -13 -4 -3 -4 22 0 25 2 35 4 23 2 -13 2 -33 0 -45z m136 -49
c-4 -4 -6 20 -3 54 l5 62 3 -54 c2 -30 0 -58 -5 -62z m822 45 l58 -65 -24 -22
-23 -22 18 23 c11 12 17 24 14 27 -3 3 -11 -1 -18 -10 -7 -8 -17 -15 -23 -15
-6 0 -2 8 10 17 l21 17 -36 41 c-20 22 -43 39 -52 38 -10 -2 -11 -1 -2 3 10 5
10 9 1 20 -6 8 -9 14 -6 14 2 0 31 -30 62 -66z m925 8 c0 -3 -7 3 -15 14 -8
10 -14 26 -15 34 0 8 7 2 15 -14 8 -15 15 -31 15 -34z m192 -23 c0 -39 -3 -73
-6 -77 -3 -3 -6 32 -6 78 0 46 3 80 6 77 4 -4 6 -38 6 -78z m289 24 c-9 -15
-10 -12 -10 17 0 29 1 32 10 18 7 -12 7 -24 0 -35z m-2304 5 c-3 -8 -6 -5 -6
6 -1 11 2 17 5 13 3 -3 4 -12 1 -19z m1760 0 c-3 -8 -6 -5 -6 6 -1 11 2 17 5
13 3 -3 4 -12 1 -19z m93 -9 c-12 -16 -25 -28 -28 -25 -5 6 36 56 45 56 3 0
-5 -14 -17 -31z m-1741 -36 c1 -7 -3 -13 -9 -13 -5 0 -10 17 -9 38 1 33 2 34
9 12 4 -14 8 -31 9 -37z m1761 8 c-8 -17 -8 -21 4 -21 8 0 17 8 19 18 4 16 5
16 6 0 1 -18 -58 -82 -67 -73 -3 3 3 11 13 18 10 8 15 20 12 28 -4 10 -6 9 -6
-3 -1 -10 -5 -18 -11 -18 -5 0 1 19 13 43 12 24 23 40 25 36 2 -4 -2 -17 -8
-28z m334 -19 c16 -81 18 -150 5 -158 -9 -5 -10 -2 -5 11 9 23 -13 175 -28
195 -9 13 -9 13 5 2 9 -7 20 -29 23 -50z m-2289 -33 c-3 -9 2 -33 10 -53 10
-23 14 -51 10 -72 -3 -22 -1 -33 5 -29 5 3 10 0 10 -7 0 -7 3 -24 6 -38 5 -23
4 -22 -12 5 -9 17 -18 54 -19 83 -1 30 -6 57 -12 60 -7 4 -11 34 -11 67 1 50
2 55 9 30 5 -16 6 -37 4 -46z m905 61 c-7 -4 -9 -13 -6 -19 11 -17 1 -13 -17
7 -14 16 -14 17 10 19 17 1 21 -2 13 -7z m270 -31 c24 -20 23 -20 -17 2 -24
12 -43 27 -43 31 0 10 26 -4 60 -33z m677 4 c-3 -10 -5 -4 -5 12 0 17 2 24 5
18 2 -7 2 -21 0 -30z m-1769 -118 l0 -40 -9 40 c-4 22 -7 65 -7 95 l1 55 7
-55 c5 -30 8 -73 8 -95z m855 131 c4 -10 1 -13 -8 -9 -8 3 -12 9 -9 14 7 12
11 11 17 -5z m26 -31 c-18 -10 -18 -12 -2 -28 27 -26 10 -20 -23 8 -16 15 -24
25 -19 24 34 -5 46 2 40 24 -7 22 -7 22 8 2 14 -18 14 -21 -4 -30z m1058 -92
c-2 -27 -3 -5 -3 47 0 52 1 74 3 48 2 -27 2 -69 0 -95z m-1990 75 c-2 -13 -4
-5 -4 17 -1 22 1 32 4 23 2 -10 2 -28 0 -40z m2030 15 c-3 -10 -5 -4 -5 12 0
17 2 24 5 18 2 -7 2 -21 0 -30z m324 28 c4 7 11 10 15 7 3 -4 -1 -14 -10 -23
-9 -9 -16 -14 -16 -12 0 3 -2 11 -3 19 -2 7 -2 9 1 4 2 -4 8 -2 13 5z m-2134
-43 c-3 -7 -5 -2 -5 12 0 14 2 19 5 13 2 -7 2 -19 0 -25z m1513 22 c0 -5 -4
-10 -10 -10 -5 0 -10 5 -10 10 0 6 5 10 10 10 6 0 10 -4 10 -10z m647 -32 c-3
-7 -5 -2 -5 12 0 14 2 19 5 13 2 -7 2 -19 0 -25z m-2168 -76 c-8 -25 -9 -25
-4 6 3 20 1 31 -5 27 -6 -4 -10 9 -10 32 l1 38 13 -38 c10 -26 11 -47 5 -65z
m1646 64 c0 -13 -2 -27 -5 -30 -5 -4 -6 43 -1 52 4 8 7 -1 6 -22z m104 -48 c0
-59 -2 -68 -10 -48 -9 22 -3 120 7 120 2 0 4 -33 3 -72z m-1789 47 c0 -8 -2
-15 -4 -15 -2 0 -6 7 -10 15 -3 8 -1 15 4 15 6 0 10 -7 10 -15z m855 5 c3 -6
-1 -7 -9 -4 -18 7 -21 14 -7 14 6 0 13 -4 16 -10z m1315 -22 c0 -25 -3 -29
-10 -18 -8 12 -10 12 -10 1 0 -8 -2 -12 -5 -9 -6 5 15 58 22 58 1 0 3 -15 3
-32z m17 0 c-3 -8 -6 -5 -6 6 -1 11 2 17 5 13 3 -3 4 -12 1 -19z m35 -62 c0
-37 5 -69 9 -72 5 -3 9 -13 9 -22 0 -14 -2 -13 -14 3 -12 19 -23 175 -10 163
2 -3 5 -35 6 -72z m-1341 40 c-7 -8 -4 -16 11 -25 19 -11 20 -11 14 4 -5 15
-4 16 9 5 9 -7 12 -16 7 -19 -5 -3 -12 -13 -15 -21 -4 -12 -7 -10 -12 6 -5 16
-13 20 -28 17 -18 -4 -19 -3 -7 6 8 6 11 11 6 11 -5 0 -3 6 3 13 6 8 7 18 3
22 -4 5 -1 5 6 1 9 -5 10 -12 3 -20z m836 -28 c-2 -13 -4 -5 -4 17 -1 22 1 32
4 23 2 -10 2 -28 0 -40z m-49 -13 c0 -16 -2 -15 -8 5 -11 34 -11 60 0 35 5
-11 8 -29 8 -40z m462 40 c0 -8 -2 -15 -4 -15 -2 0 -6 7 -10 15 -3 8 -1 15 4
15 6 0 10 -7 10 -15z m-1285 -5 c-3 -5 -11 -10 -16 -10 -6 0 -7 5 -4 10 3 6
11 10 16 10 6 0 7 -4 4 -10z m522 -27 c-11 -25 -27 -21 -27 7 0 12 7 18 19 17
16 -1 17 -5 8 -24z m-1471 -39 c-4 -20 -10 -34 -12 -31 -3 3 -2 21 2 41 3 21
9 35 11 32 3 -3 2 -21 -1 -42z m21 -11 c-3 -10 -5 -2 -5 17 0 19 2 27 5 18 2
-10 2 -26 0 -35z m115 -123 c2 -19 -2 -25 -18 -26 -17 -1 -20 3 -15 25 l5 26
8 -25 c5 -16 6 -7 2 25 -14 135 -14 150 1 75 8 -41 16 -86 17 -100z m1655 148
c-3 -8 -6 -5 -6 6 -1 11 2 17 5 13 3 -3 4 -12 1 -19z m-701 -29 c18 -19 22
-28 11 -24 -9 4 -17 11 -17 17 0 5 -4 6 -10 3 -5 -3 -18 -1 -27 4 -17 10 -17
10 0 11 10 0 15 5 12 10 -12 19 1 10 31 -21z m84 27 c0 -2 -8 -10 -17 -17 -16
-13 -17 -12 -4 4 13 16 21 21 21 13z m-992 -61 c0 -16 -2 -15 -8 5 -11 34 -11
60 0 35 5 -11 8 -29 8 -40z m1262 35 c0 -11 -2 -20 -4 -20 -2 0 -6 9 -9 20 -3
11 -1 20 4 20 5 0 9 -9 9 -20z m397 -42 c-2 -13 -4 -3 -4 22 0 25 2 35 4 23 2
-13 2 -33 0 -45z m80 -35 c-2 -21 -4 -6 -4 32 0 39 2 55 4 38 2 -18 2 -50 0
-70z m250 50 c-18 -33 -67 -82 -67 -65 0 6 11 19 25 30 13 11 30 31 36 46 7
14 14 24 16 22 3 -2 -2 -17 -10 -33z m-2020 -5 c-3 -7 -5 -2 -5 12 0 14 2 19
5 13 2 -7 2 -19 0 -25z m1610 -20 c-3 -7 -5 -2 -5 12 0 14 2 19 5 13 2 -7 2
-19 0 -25z m-1747 -32 c0 -26 -6 -18 -14 19 -5 22 -4 26 4 15 5 -8 10 -24 10
-34z m1880 -3 c0 -24 -15 -39 -25 -23 -3 5 -1 10 6 10 8 0 9 11 5 33 -4 23 -3
28 4 17 5 -8 10 -25 10 -37z m287 25 c-3 -8 -6 -5 -6 6 -1 11 2 17 5 13 3 -3
4 -12 1 -19z m-2016 -21 c-10 -9 -11 -8 -5 6 3 10 9 15 12 12 3 -3 0 -11 -7
-18z m1654 -114 c-4 -58 -11 -103 -17 -103 -6 0 -7 7 -4 16 4 9 9 64 13 123 4
58 9 97 11 87 2 -11 1 -66 -3 -123z m-28 55 c-2 -13 -4 -3 -4 22 0 25 2 35 4
23 2 -13 2 -33 0 -45z m-66 -94 l-10 -49 4 49 c3 27 6 72 7 100 l2 51 3 -51
c2 -28 -1 -73 -6 -100z m126 99 c-3 -10 -5 -4 -5 12 0 17 2 24 5 18 2 -7 2
-21 0 -30z m-1662 -3 c6 0 11 -6 13 -14 2 -9 -1 -16 -7 -16 -6 0 -8 -8 -5 -17
5 -15 4 -15 -4 -3 -5 8 -12 31 -16 50 -3 20 -3 27 2 17 4 -10 12 -18 17 -17z
m1562 -2 c-3 -7 -5 -2 -5 12 0 14 2 19 5 13 2 -7 2 -19 0 -25z m-1733 6 c3 -8
2 -12 -4 -9 -6 3 -10 10 -10 16 0 14 7 11 14 -7z m590 -3 c14 -15 16 -29 11
-60 -4 -27 -3 -41 4 -41 6 0 12 10 12 23 1 17 2 18 6 4 3 -10 2 -25 -1 -34
-12 -32 -36 7 -37 61 -1 43 -2 46 -9 21 l-7 -30 -11 28 c-19 46 1 62 32 28z
m1523 4 c-4 -8 0 -27 8 -42 8 -15 15 -40 15 -55 0 -14 5 -28 12 -30 8 -3 8 -9
1 -23 -9 -16 -12 -12 -18 26 -4 24 -13 59 -21 77 -12 29 -10 62 3 62 3 0 3 -7
0 -15z m238 -85 c4 -18 3 -21 -4 -10 -5 8 -12 38 -15 65 -5 49 -5 49 4 10 6
-22 12 -51 15 -65z m-2092 55 c-18 -24 -43 -34 -43 -16 0 5 -3 16 -6 25 -5 13
1 16 30 16 l37 0 -18 -25z m1887 10 c0 -8 -2 -15 -4 -15 -2 0 -6 7 -10 15 -3
8 -1 15 4 15 6 0 10 -7 10 -15z m17 -17 c-3 -7 -5 -2 -5 12 0 14 2 19 5 13 2
-7 2 -19 0 -25z m-2029 -10 c3 -17 -35 -32 -44 -17 -3 5 5 9 17 9 19 0 20 2 8
17 -12 14 -12 16 1 11 8 -2 16 -12 18 -20z m2266 -79 c13 -42 14 -61 6 -80
-10 -24 -10 -24 -7 4 3 15 -1 45 -8 65 -7 20 -15 55 -18 77 -7 44 -1 30 27
-66z m-643 11 c-6 -30 -9 -36 -10 -19 -1 33 12 99 16 79 2 -8 -1 -35 -6 -60z
m126 38 c-3 -7 -5 -2 -5 12 0 14 2 19 5 13 2 -7 2 -19 0 -25z m-40 0 c-3 -8
-6 -5 -6 6 -1 11 2 17 5 13 3 -3 4 -12 1 -19z m-1772 -16 c-3 -3 -11 0 -18 7
-9 10 -8 11 6 5 10 -3 15 -9 12 -12z m-35 -4 c0 -7 3 -24 7 -38 9 -36 -6 -19
-17 19 -5 19 -5 31 1 31 5 0 9 -6 9 -12z m1697 -10 c-3 -8 -6 -5 -6 6 -1 11 2
17 5 13 3 -3 4 -12 1 -19z m130 0 c-3 -8 -6 -5 -6 6 -1 11 2 17 5 13 3 -3 4
-12 1 -19z m-1752 -6 c-3 -3 -11 0 -18 7 -9 10 -8 11 6 5 10 -3 15 -9 12 -12z
m98 -12 c3 -11 2 -20 -3 -20 -4 0 -10 9 -13 20 -3 11 -2 20 3 20 4 0 10 -9 13
-20z m1624 -32 c-3 -7 -5 -2 -5 12 0 14 2 19 5 13 2 -7 2 -19 0 -25z m20 10
c-3 -8 -6 -5 -6 6 -1 11 2 17 5 13 3 -3 4 -12 1 -19z m20 0 c-3 -8 -6 -5 -6 6
-1 11 2 17 5 13 3 -3 4 -12 1 -19z m-1791 -35 c-3 -4 -6 -1 -6 6 0 7 -4 9 -10
6 -6 -4 -7 1 -3 11 6 15 7 15 15 -1 6 -9 7 -19 4 -22z m2274 -28 c-7 -24 -10
-57 -6 -72 4 -19 3 -23 -3 -13 -5 8 -11 38 -14 65 -4 30 -3 40 2 25 7 -23 8
-21 16 20 4 25 10 39 13 32 2 -8 -1 -33 -8 -57z m-2120 -40 c6 -26 17 -63 25
-82 9 -20 13 -38 11 -40 -4 -5 -47 103 -50 127 -1 8 -8 28 -14 43 -16 38 -15
46 3 21 8 -12 19 -43 25 -69z m1507 53 c-3 -7 -5 -2 -5 12 0 14 2 19 5 13 2
-7 2 -19 0 -25z m113 -58 l-11 -25 6 25 c2 14 6 41 7 60 l1 35 4 -35 c2 -20
-1 -47 -7 -60z m370 80 c0 -5 -2 -10 -4 -10 -3 0 -8 5 -11 10 -3 6 -1 10 4 10
6 0 11 -4 11 -10z m-446 -42 c-4 -13 -11 -39 -15 -58 -8 -44 -11 -8 -3 43 4
20 11 37 16 37 5 0 6 -10 2 -22z m419 -23 c5 -28 4 -34 -3 -20 -8 19 -14 73
-6 64 2 -2 6 -22 9 -44z m-506 3 c-3 -7 -5 -2 -5 12 0 14 2 19 5 13 2 -7 2
-19 0 -25z m41 -28 c0 -9 -3 -7 -8 5 -5 11 -8 29 -8 40 0 16 2 15 8 -5 4 -14
8 -32 8 -40z m109 38 c-3 -8 -6 -5 -6 6 -1 11 2 17 5 13 3 -3 4 -12 1 -19z
m580 -56 c-16 -15 -17 -15 -17 8 0 20 2 22 11 10 8 -11 9 -5 5 25 l-5 40 11
-33 c9 -27 8 -36 -5 -50z m-2340 41 c1 -22 -1 -24 -8 -10 -6 9 -7 22 -4 27 9
14 10 13 12 -17z m112 -18 c0 -5 -4 -3 -9 5 -5 8 -9 22 -9 30 0 16 17 -16 18
-35z m2178 -2 c-3 -10 -5 -2 -5 17 0 19 2 27 5 18 2 -10 2 -26 0 -35z m-123
-63 c4 -28 3 -38 -2 -25 -5 11 -12 40 -15 65 -4 28 -3 37 2 25 5 -11 11 -40
15 -65z m-64 33 c0 -32 -5 -28 -14 10 -4 19 -3 26 4 22 5 -3 10 -18 10 -32z
m-2001 -28 c0 -5 -4 -3 -9 5 -5 8 -9 22 -9 30 0 16 17 -16 18 -35z m36 -15 c5
-23 4 -32 -3 -25 -5 6 -12 28 -15 50 -7 47 7 27 18 -25z m1502 18 c-3 -7 -5
-2 -5 12 0 14 2 19 5 13 2 -7 2 -19 0 -25z m282 -67 c1 -76 -5 -60 -12 29 -4
46 -3 65 3 50 4 -14 8 -49 9 -79z m447 26 c-2 -7 -5 -2 -5 11 -1 12 -6 22 -11
22 -6 0 -8 -12 -5 -27 5 -26 5 -26 -4 -5 -7 15 -7 30 1 48 l12 27 9 -33 c4
-17 6 -37 3 -43z m-64 27 c-9 -16 -10 -14 -9 8 1 15 6 23 11 18 4 -4 4 -16 -2
-26z m-683 -1 c10 -25 10 -26 -3 -10 -13 17 -15 15 -21 -28 -4 -25 -9 -44 -12
-42 -7 7 9 107 17 107 4 0 12 -12 19 -27z m515 -33 c5 -26 4 -31 -3 -20 -6 8
-11 26 -12 40 0 23 -1 23 -9 5 -10 -23 -13 -5 -4 20 9 22 19 5 28 -45z m-196
25 c-3 -3 -9 2 -12 12 -6 14 -5 15 5 6 7 -7 10 -15 7 -18z m-1678 -52 c24 -38
56 -84 72 -103 35 -44 36 -59 2 -52 -22 4 -35 22 -75 106 -46 95 -54 116 -45
116 2 0 23 -30 46 -67z m1403 35 c-3 -18 -10 -37 -15 -43 -7 -7 -8 -1 -3 15 3
14 9 33 11 43 9 29 14 19 7 -15z m77 1 c-13 -43 -16 -44 -16 -4 0 21 5 35 12
35 9 0 10 -8 4 -31z m224 -35 c10 -37 2 -39 -11 -4 -6 17 -8 30 -3 30 4 0 11
-12 14 -26z m366 -44 c3 -33 3 -56 -1 -52 -8 8 -18 124 -10 116 3 -3 8 -32 11
-64z m-2151 20 c0 -10 -3 -8 -9 5 -12 27 -12 43 0 25 5 -8 9 -22 9 -30z m1435
6 c-3 -15 -8 -25 -11 -23 -2 3 -1 17 3 31 3 15 8 25 11 23 2 -3 1 -17 -3 -31z
m768 -85 c-4 -13 -8 4 -8 47 -1 66 -1 66 7 21 5 -26 6 -56 1 -68z m-191 49
l-7 -35 -6 35 c-6 38 -1 57 12 43 5 -4 5 -24 1 -43z m52 35 c-3 -9 -8 -14 -10
-11 -3 3 -2 9 2 15 9 16 15 13 8 -4z m-521 -14 c-3 -9 -12 -27 -19 -41 l-13
-25 0 28 c0 19 4 26 12 21 7 -5 9 -1 6 13 -3 12 0 20 7 20 8 0 11 -7 7 -16z
m365 -13 c-3 -7 -5 -2 -5 12 0 14 2 19 5 13 2 -7 2 -19 0 -25z m53 28 c0 -3
-4 -8 -10 -11 -5 -3 -10 -1 -10 4 0 6 5 11 10 11 6 0 10 -2 10 -4z m-1911 -71
c0 -5 -6 -1 -14 9 -8 11 -15 27 -15 35 1 17 29 -26 29 -44z m1360 24 c1 8 4
12 7 9 3 -4 0 -17 -7 -30 -7 -12 -12 -31 -10 -42 2 -12 -1 -16 -9 -11 -9 5
-10 1 -5 -14 3 -11 2 -28 -3 -37 -8 -15 -10 -15 -15 0 -4 11 -3 15 4 10 8 -4
9 1 4 15 -3 12 0 34 8 50 8 16 13 42 11 58 -4 27 -3 27 5 3 5 -14 9 -19 10
-11z m557 -11 c-4 -30 -3 -39 4 -28 8 12 10 10 9 -10 0 -14 -4 -34 -8 -45 -6
-15 -9 -9 -14 25 -5 43 0 100 11 100 2 0 2 -19 -2 -42z m-2042 6 c3 -8 6 -18
7 -22 1 -4 10 -20 21 -37 l20 -30 -26 28 c-15 16 -24 33 -21 38 4 5 0 12 -9
15 -8 3 -17 12 -20 19 -3 9 0 12 9 9 7 -3 16 -12 19 -20z m1563 -11 c-3 -10
-5 -4 -5 12 0 17 2 24 5 18 2 -7 2 -21 0 -30z m563 27 c0 -5 -4 -10 -10 -10
-5 0 -10 5 -10 10 0 6 5 10 10 10 6 0 10 -4 10 -10z m-2035 -30 c3 -5 1 -10
-4 -10 -6 0 -11 5 -11 10 0 6 2 10 4 10 3 0 8 -4 11 -10z m1255 -72 c-33 -91
-64 -210 -78 -303 -11 -71 -1 -260 15 -276 8 -8 8 2 2 36 -12 65 -2 74 24 23
19 -38 65 -79 99 -90 16 -6 -28 -63 -129 -171 -46 -48 -83 -92 -83 -98 0 -5
-7 -9 -15 -9 -18 0 -18 -1 1 45 8 20 14 41 12 47 -2 5 -12 -14 -22 -42 -14
-40 -16 -54 -7 -60 9 -5 5 -20 -17 -56 -16 -27 -33 -59 -37 -72 -6 -20 -18 -5
-95 110 -48 73 -115 166 -149 205 -56 66 -62 79 -73 143 -7 38 -15 70 -19 70
-6 0 8 -107 17 -122 9 -14 1 -9 -131 77 -75 49 -122 85 -110 85 17 0 18 2 5
11 -12 9 -11 9 5 3 48 -17 86 -16 127 6 51 26 54 30 73 96 11 35 23 55 40 64
14 7 25 17 25 22 0 5 4 7 8 4 4 -2 14 0 22 6 12 8 11 9 -4 4 -14 -5 -17 -2
-12 11 5 13 0 11 -18 -6 -26 -25 -37 -17 -13 9 10 12 9 12 -6 0 -10 -7 -16
-19 -13 -26 3 -7 1 -16 -4 -19 -6 -4 -10 5 -10 19 0 14 4 27 10 31 5 3 8 11 6
18 -1 7 -1 9 1 4 3 -4 8 -5 13 -2 5 3 41 -8 81 -24 68 -28 75 -29 107 -15 64
26 167 108 272 215 58 58 106 107 107 108 2 0 -11 -36 -27 -81z m178 39 c-6
-20 -15 -37 -19 -37 -4 0 0 18 8 40 20 49 26 47 11 -3z m469 -9 c-2 -13 -4 -5
-4 17 -1 22 1 32 4 23 2 -10 2 -28 0 -40z m-180 -30 c-2 -13 -4 -3 -4 22 0 25
2 35 4 23 2 -13 2 -33 0 -45z m292 12 c0 -9 -4 -8 -9 5 -5 11 -9 27 -9 35 0 9
4 8 9 -5 5 -11 9 -27 9 -35z m-1940 0 c11 -24 11 -24 -3 -6 -9 11 -16 24 -16
30 0 12 5 7 19 -24z m1398 -2 c-3 -8 -6 -5 -6 6 -1 11 2 17 5 13 3 -3 4 -12 1
-19z m730 -105 c-2 -21 -4 -4 -4 37 0 41 2 58 4 38 2 -21 2 -55 0 -75z m-295
72 c-8 -16 -9 -16 -15 -1 -4 10 -3 15 3 11 6 -3 10 -1 10 6 0 7 3 10 6 6 3 -3
2 -13 -4 -22z m118 -50 l-7 -70 -1 57 c-2 47 6 97 12 86 1 -2 -1 -34 -4 -73z
m-617 45 c3 -11 1 -18 -4 -14 -5 3 -9 12 -9 20 0 20 7 17 13 -6z m15 -54 c-21
-37 -37 -55 -46 -51 -9 3 -12 0 -9 -9 3 -7 -8 -29 -24 -47 -28 -32 -29 -33
-17 -6 6 15 15 27 20 27 4 0 7 3 6 8 -4 13 24 102 35 109 6 3 7 1 3 -5 -4 -7
-3 -19 2 -29 8 -14 13 -10 30 24 12 22 20 43 18 46 -2 2 1 1 6 -3 5 -4 -6 -32
-24 -64z m-1437 47 c13 -16 12 -17 -3 -4 -10 7 -18 15 -18 17 0 8 8 3 21 -13z
m119 -14 c0 -18 -18 -9 -23 12 -4 16 -3 18 9 8 8 -6 14 -15 14 -20z m1737 -11
c-3 -8 -6 -5 -6 6 -1 11 2 17 5 13 3 -3 4 -12 1 -19z m126 -65 c-3 -49 -7 -90
-9 -92 -2 -2 -4 34 -4 81 0 73 4 98 16 98 1 0 0 -39 -3 -87z m-1953 57 c0 -5
-2 -10 -4 -10 -3 0 -8 5 -11 10 -3 6 -1 10 4 10 6 0 11 -4 11 -10z m1707 -22
c-3 -7 -5 -2 -5 12 0 14 2 19 5 13 2 -7 2 -19 0 -25z m174 10 c1 -22 1 -22 9
2 7 21 8 21 9 5 0 -11 -3 -26 -8 -33 -6 -10 -11 -6 -19 17 -7 19 -7 31 -1 31
5 0 9 -10 10 -22z m-1860 -11 c-10 -9 -11 -8 -5 6 3 10 9 15 12 12 3 -3 0 -11
-7 -18z m99 -2 c0 -8 -3 -16 -7 -18 -5 -3 -8 5 -8 18 0 13 3 21 8 18 4 -2 7
-10 7 -18z m1190 -56 c-11 -27 -20 -53 -20 -56 0 -3 -2 -4 -5 -1 -3 3 3 28 14
56 11 27 17 53 13 58 -4 4 -2 4 5 0 9 -5 8 -19 -7 -57z m-1224 -3 c8 -3 14 0
14 6 0 21 13 -1 16 -28 l3 -26 -34 32 c-22 22 -31 38 -27 49 6 13 7 12 10 -6
2 -12 10 -24 18 -27z m1821 -3 c-3 -10 -5 -2 -5 17 0 19 2 27 5 18 2 -10 2
-26 0 -35z m-1738 -45 c-26 -22 -46 -24 -29 -3 7 8 19 15 27 15 11 0 10 5 -4
25 -10 13 -24 22 -30 20 -14 -5 -17 7 -6 19 4 4 20 -8 35 -26 l28 -33 -21 -17z
m1948 40 c-3 -7 -5 -2 -5 12 0 14 2 19 5 13 2 -7 2 -19 0 -25z m50 -20 c-2
-24 -10 -56 -17 -73 -7 -16 -12 -37 -11 -45 1 -11 -3 -10 -14 4 -8 11 -14 31
-14 45 1 25 2 24 9 -4 l7 -30 13 30 c7 17 15 49 17 73 3 23 8 42 11 42 2 0 2
-19 -1 -42z m-286 -14 c-5 -16 -10 -21 -10 -12 -1 18 10 51 15 45 2 -1 -1 -16
-5 -33z m-107 11 c-4 -8 -8 -15 -10 -15 -2 0 -4 7 -4 15 0 8 4 15 10 15 5 0 7
-7 4 -15z m132 -17 c-3 -13 -10 -49 -16 -81 -7 -32 -14 -57 -16 -54 -4 3 3 46
22 135 2 12 7 22 9 22 3 0 3 -10 1 -22z m111 -40 c-2 -13 -4 -3 -4 22 0 25 2
35 4 23 2 -13 2 -33 0 -45z m-1832 11 c-4 -13 -3 -19 2 -16 5 4 10 0 10 -8 0
-13 -3 -12 -18 1 -14 13 -15 19 -6 30 17 19 19 17 12 -7z m44 -13 c-3 -3 -11
5 -18 17 -13 21 -12 21 5 5 10 -10 16 -20 13 -22z m59 -59 c23 -24 39 -46 36
-50 -4 -4 -3 -7 3 -7 6 0 27 -13 48 -30 21 -16 35 -30 32 -30 -9 0 -112 72
-107 74 3 2 -1 10 -9 19 -7 9 -17 14 -22 11 -10 -6 -58 27 -59 40 0 5 11 -1
25 -14 14 -13 28 -20 32 -16 5 4 -3 16 -16 27 -13 10 -19 19 -14 19 5 0 28
-19 51 -43z m1671 16 l-1 -28 -8 25 c-8 25 -8 25 -10 -5 -2 -19 -4 -23 -7 -12
-6 22 3 47 17 47 5 0 10 -12 9 -27z m61 -5 c0 -18 -2 -20 -9 -8 -6 8 -7 18 -5
22 9 14 14 9 14 -14z m74 -73 c-15 -20 -30 -33 -33 -29 -3 4 0 9 7 11 6 3 12
12 12 20 0 14 -3 13 -22 -3 l-23 -19 18 22 c11 12 25 19 34 16 9 -4 16 3 20
18 4 13 8 18 10 12 3 -7 -8 -28 -23 -48z m-93 18 c-12 -20 -14 -14 -5 12 4 9
9 14 11 11 3 -2 0 -13 -6 -23z m-60 -10 c-12 -20 -14 -14 -5 12 4 9 9 14 11
11 3 -2 0 -13 -6 -23z m-105 1 c13 -3 21 -10 19 -15 -7 -10 -32 -2 -60 19 -17
13 -18 14 -2 8 11 -3 30 -9 43 -12z m94 -34 c0 -5 -4 -10 -10 -10 -5 0 -10 5
-10 10 0 6 5 10 10 10 6 0 10 -4 10 -10z m110 -10 c0 -5 -4 -10 -10 -10 -5 0
-10 5 -10 10 0 6 5 10 10 10 6 0 10 -4 10 -10z m-60 -10 c0 -5 -5 -10 -11 -10
-5 0 -7 5 -4 10 3 6 8 10 11 10 2 0 4 -4 4 -10z m80 -4 c0 -2 -8 -10 -17 -17
-16 -13 -17 -12 -4 4 13 16 21 21 21 13z m-43 -26 c1 -11 -3 -20 -8 -20 -6 0
-7 5 -4 10 3 6 0 10 -7 10 -9 0 -9 3 2 10 8 5 15 10 15 10 1 0 1 -9 2 -20z
m-2507 -165 c16 -19 0 -19 -26 0 -16 12 -16 14 -3 15 9 0 22 -7 29 -15z m1213
-441 c38 -13 47 -20 47 -39 0 -62 -28 -72 -53 -19 -13 27 -22 35 -40 32 -14
-2 -23 -11 -25 -25 -2 -13 -7 -23 -12 -23 -13 0 -20 28 -13 60 7 35 26 38 96
14z m537 12 c0 -2 -9 -6 -20 -9 -11 -3 -18 -1 -14 4 5 9 34 13 34 5z m30 -35
c13 -25 13 -121 0 -121 -5 0 -10 9 -10 20 0 26 -21 70 -34 71 -6 1 -17 1 -23
0 -22 -3 -14 29 10 39 34 14 45 12 57 -9z"/>
<path d="M1201 2844 c0 -11 3 -14 6 -6 3 7 2 16 -1 19 -3 4 -6 -2 -5 -13z"/>
<path d="M1285 2818 c4 -13 11 -27 16 -33 5 -5 4 5 -2 23 -12 36 -24 44 -14
10z"/>
<path d="M1191 2804 c0 -11 3 -14 6 -6 3 7 2 16 -1 19 -3 4 -6 -2 -5 -13z"/>
<path d="M2873 2884 c-15 -16 -16 -24 -4 -24 8 0 24 30 19 35 -2 2 -9 -3 -15
-11z"/>
<path d="M1520 2480 c0 -5 5 -10 10 -10 6 0 10 5 10 10 0 6 -4 10 -10 10 -5 0
-10 -4 -10 -10z"/>
<path d="M1354 2141 c-47 -21 -120 -84 -135 -115 -7 -13 0 -10 18 10 40 45 95
83 150 104 26 11 39 19 28 19 -11 0 -39 -8 -61 -18z"/>
<path d="M2421 2084 c-17 -37 -31 -84 -25 -84 3 0 14 21 25 47 21 50 22 83 0
37z"/>
<path d="M2417 2013 c-9 -20 -14 -39 -12 -42 7 -7 13 1 30 42 20 48 4 48 -18
0z"/>
<path d="M2310 2025 c0 -15 18 -40 24 -34 3 3 -1 14 -9 25 -8 10 -14 15 -15 9z"/>
<path d="M2406 1869 c-54 -13 -57 -19 -10 -19 22 0 49 7 60 15 22 17 10 18
-50 4z"/>
<path d="M1585 1690 c-50 -18 -50 -18 -15 -19 20 0 45 8 60 19 30 23 21 23
-45 0z"/>
<path d="M1290 1685 c-11 -13 -9 -15 15 -15 16 0 25 5 23 12 -7 19 -24 20 -38
3z"/>
<path d="M1372 1648 c-7 -7 -12 -21 -12 -32 0 -19 1 -19 24 3 19 18 26 20 32
9 5 -7 7 -21 6 -30 -4 -22 16 -24 24 -3 5 11 22 15 74 14 67 -1 110 12 110 32
0 7 -7 8 -17 4 -69 -28 -172 -28 -204 0 -19 18 -22 18 -37 3z"/>
<path d="M1886 1621 c-4 -7 -5 -15 -2 -18 9 -9 19 4 14 18 -4 11 -6 11 -12 0z"/>
<path d="M2157 1530 c-40 -43 -91 -59 -126 -40 -18 9 -27 7 -52 -14 -17 -14
-27 -26 -22 -26 5 0 19 9 31 20 17 16 26 18 41 10 36 -19 77 -11 119 23 37 29
57 55 49 63 -1 2 -19 -14 -40 -36z"/>
<path d="M1865 1470 c3 -5 8 -10 11 -10 2 0 4 5 4 10 0 6 -5 10 -11 10 -5 0
-7 -4 -4 -10z"/>
<path d="M1908 1453 c6 -2 18 -2 25 0 6 3 1 5 -13 5 -14 0 -19 -2 -12 -5z"/>
<path d="M2613 1268 c-2 -16 1 -18 10 -9 7 7 8 14 1 21 -6 6 -10 2 -11 -12z"/>
</g>
</svg>
